<?xml version="1.0" encoding="utf-8"?>
<!-- Generator: Adobe Illustrator 24.0.2, SVG Export Plug-In . SVG Version: 6.00 Build 0)  -->
<svg version="1.0" id="Layer_1" xmlns="http://www.w3.org/2000/svg" xmlns:xlink="http://www.w3.org/1999/xlink" x="0px" y="0px"
	 viewBox="0 0 145 20" style="enable-background:new 0 0 145 20;" xml:space="preserve">
<style type="text/css">
	.st0{fill:#06B93A;}
</style>
<path class="st0" d="M144,17.6c0-0.2-0.1-0.4-0.3-0.5l-18-12.5c-0.4-0.3-1-0.3-1.4,0l-16.5,11.6l-17.3-12c-0.4-0.3-1-0.3-1.4,0
	L72.7,15.8L55.3,3.8c-0.4-0.3-1-0.3-1.4,0L37.4,15.4l-17.3-12c-0.4-0.3-1-0.3-1.4,0l-17,12c-0.4,0.3-0.4,0.7,0,1
	c0.4,0.3,1,0.3,1.4,0L19.4,4.9l17.3,12c0.4,0.3,1,0.3,1.4,0c0,0,0,0,0.1-0.1c0,0,0.1,0,0.1-0.1L54.6,5.3l17.3,12
	c0.2,0.2,0.6,0.2,0.9,0.2c0.3,0,0.5-0.1,0.7-0.2L89.8,5.7l17.3,12c0.4,0.3,1,0.3,1.4,0c0,0,0,0,0.1-0.1c0,0,0.1,0,0.1-0.1L125,6.1
	l17.3,12c0.4,0.3,1,0.3,1.4,0C143.9,18,144,17.8,144,17.6z"/>
</svg>
