<svg xmlns="http://www.w3.org/2000/svg" width="99.169" height="103.674" viewBox="0 0 99.169 103.674">
  <g id="Group_664" data-name="Group 664" transform="translate(-385.831 -3014.27)">
    <g id="Group_663" data-name="Group 663">
      <path id="Path_277" data-name="Path 277" d="M96.229,92.533A12.018,12.018,0,0,0,99.864,83.9a11.574,11.574,0,1,0-23.14,0A11.973,11.973,0,0,0,82,93.867a8.563,8.563,0,0,0-3.625,7.026v11.9H71.766v-8.5a11.8,11.8,0,0,0-10.2-11.805,12.013,12.013,0,0,0,3.587-8.59,11.574,11.574,0,1,0-23.14,0,12.013,12.013,0,0,0,3.587,8.59,11.8,11.8,0,0,0-10.2,11.805v8.5H28.792v-11.9a8.563,8.563,0,0,0-3.625-7.026,11.973,11.973,0,0,0,5.277-9.97A11.75,11.75,0,0,0,18.875,72,11.75,11.75,0,0,0,7.306,83.9a12.018,12.018,0,0,0,3.635,8.636A8.421,8.421,0,0,0,4,100.893v25.494a8.458,8.458,0,0,0,6.611,8.326v25.665h3.306V134.884H28.792v23.794a1.677,1.677,0,0,0,1.653,1.7h9.917a1.677,1.677,0,0,0,1.653-1.7V131.485h9.917v25.494H45.321v3.4H61.849v-3.4H55.238V131.485h9.917v27.193a1.677,1.677,0,0,0,1.653,1.7h9.917a1.677,1.677,0,0,0,1.653-1.7V134.884H93.253v25.494h3.306V134.713a8.457,8.457,0,0,0,6.611-8.326V100.893A8.421,8.421,0,0,0,96.229,92.533ZM80.03,83.9a8.267,8.267,0,1,1,8.264,8.5A8.393,8.393,0,0,1,80.03,83.9Zm-34.709,0a8.267,8.267,0,1,1,8.264,8.5A8.393,8.393,0,0,1,45.321,83.9Zm10.838,11.9-2.573,7.057-2.573-7.057Zm-17.449,8.5a8.393,8.393,0,0,1,8.264-8.5h.507l4.557,12.494a1.638,1.638,0,0,0,3.1,0l4.555-12.494H60.2a8.393,8.393,0,0,1,8.264,8.5v8.5H61.849a1.677,1.677,0,0,0-1.653,1.7v6.8H46.973v-6.8a1.677,1.677,0,0,0-1.653-1.7H38.709ZM10.611,83.9a8.393,8.393,0,0,1,8.264-8.5,8.5,8.5,0,0,1,0,17A8.393,8.393,0,0,1,10.611,83.9Zm28.1,73.082H32.1V133.185a1.677,1.677,0,0,0-1.653-1.7H12.264a5.036,5.036,0,0,1-4.958-5.1V100.893a5.036,5.036,0,0,1,4.958-5.1h8.264a5.036,5.036,0,0,1,4.958,5.1v13.6a1.677,1.677,0,0,0,1.653,1.7H43.668v5.1H20.528v-15.3H17.223v17a1.677,1.677,0,0,0,1.653,1.7H33.751a5.036,5.036,0,0,1,4.958,5.1Zm26.63-28.893H41.83a8.605,8.605,0,0,0-1.471-3.4H66.811A8.605,8.605,0,0,0,65.34,128.086Zm34.524-1.7a5.036,5.036,0,0,1-4.958,5.1H76.724a1.677,1.677,0,0,0-1.653,1.7v23.794H68.46V129.786a5.036,5.036,0,0,1,4.958-5.1H88.294a1.677,1.677,0,0,0,1.653-1.7v-17H86.641v15.3H63.5v-5.1H80.03a1.677,1.677,0,0,0,1.653-1.7v-13.6a5.036,5.036,0,0,1,4.958-5.1h8.264a5.036,5.036,0,0,1,4.958,5.1Z" transform="translate(381.831 2957.566)" fill="#3c3c3c"/>
      <path id="Path_278" data-name="Path 278" d="M109.494,0H85.7A1.7,1.7,0,0,0,84,1.7v8.5a1.7,1.7,0,0,0,1.7,1.7h6.8v3.4a1.7,1.7,0,0,0,2.719,1.36l6.345-4.759h7.932a1.7,1.7,0,0,0,1.7-1.7V1.7A1.7,1.7,0,0,0,109.494,0Zm-1.7,8.5H101a1.7,1.7,0,0,0-1.02.34L95.9,11.9V10.2a1.7,1.7,0,0,0-1.7-1.7H87.4V3.4h20.395Z" transform="translate(318.189 3014.27)" fill="#3c3c3c"/>
    </g>
    <rect id="Rectangle_1866" data-name="Rectangle 1866" width="3.522" height="3.522" transform="translate(444.006 3019.316)" fill="#3c3c3c"/>
    <rect id="Rectangle_1867" data-name="Rectangle 1867" width="3.522" height="3.522" transform="translate(449.995 3019.316)" fill="#3c3c3c"/>
    <rect id="Rectangle_1868" data-name="Rectangle 1868" width="3.522" height="3.522" transform="translate(456.839 3019.316)" fill="#3c3c3c"/>
  </g>
</svg>
