<svg xmlns="http://www.w3.org/2000/svg" width="116.211" height="96.843" viewBox="0 0 116.211 96.843">
  <path id="Path_298" data-name="Path 298" d="M106.527,57.193H82.316V52.35a9.694,9.694,0,0,0-9.684-9.684H43.579a9.694,9.694,0,0,0-9.684,9.684v4.842H9.684A9.694,9.694,0,0,0,0,66.877v62.948a9.694,9.694,0,0,0,9.684,9.684h96.843a9.694,9.694,0,0,0,9.684-9.684V66.877A9.694,9.694,0,0,0,106.527,57.193ZM38.737,52.35a4.848,4.848,0,0,1,4.842-4.842H72.632a4.848,4.848,0,0,1,4.842,4.842v4.842H38.737Zm72.632,77.474a4.848,4.848,0,0,1-4.842,4.842H9.684a4.848,4.848,0,0,1-4.842-4.842V94.583A9.574,9.574,0,0,0,9.684,95.93H48.421v7.263a2.42,2.42,0,0,0,2.421,2.421H65.369a2.42,2.42,0,0,0,2.421-2.421V95.93h38.737a9.571,9.571,0,0,0,4.842-1.347v35.242ZM53.263,100.772V91.087h9.684v9.684Zm58.105-14.526a4.848,4.848,0,0,1-4.842,4.842H67.79V88.666a2.42,2.42,0,0,0-2.421-2.421H50.842a2.42,2.42,0,0,0-2.421,2.421v2.421H9.684a4.848,4.848,0,0,1-4.842-4.842V66.877a4.848,4.848,0,0,1,4.842-4.842h96.843a4.848,4.848,0,0,1,4.842,4.842Z" transform="translate(0 -42.666)" fill="#3c3c3c"/>
</svg>
