<svg xmlns="http://www.w3.org/2000/svg" width="2677" height="1340" viewBox="0 0 2677 1340">
  <g id="Group_3" data-name="Group 3" transform="translate(976 211)">
    <g id="svg2" transform="translate(2203 1378)">
      <g id="Ellipse_7" data-name="Ellipse 7" transform="translate(-796 -483)" fill="#fff" stroke="#ff8649" stroke-width="5">
        <ellipse cx="68.5" cy="68" rx="68.5" ry="68" stroke="none"/>
        <ellipse cx="68.5" cy="68" rx="66" ry="65.5" fill="none"/>
      </g>
      <g id="Ellipse_8" data-name="Ellipse 8" transform="translate(-758 -442)" fill="#ff8649" stroke="#ff8649" stroke-width="5">
        <ellipse cx="30.5" cy="27" rx="30.5" ry="27" stroke="none"/>
        <ellipse cx="30.5" cy="27" rx="28" ry="24.5" fill="none"/>
      </g>
    </g>
    <g id="svg1" transform="translate(344 355)">
      <g id="Ellipse_7-2" data-name="Ellipse 7" transform="translate(-796 -483)" fill="#fdfdfd" stroke="#ffce49" stroke-width="10">
        <ellipse cx="68" cy="67.5" rx="68" ry="67.5" stroke="none"/>
        <ellipse cx="68" cy="67.5" rx="63" ry="62.5" fill="none"/>
      </g>
      <g id="Ellipse_8-2" data-name="Ellipse 8" transform="translate(-767 -451)" fill="#fdfdfd" stroke="#ffce49" stroke-width="8">
        <ellipse cx="39" cy="37" rx="39" ry="37" stroke="none"/>
        <ellipse cx="39" cy="37" rx="35" ry="33" fill="none"/>
      </g>
    </g>
    <g id="svg3" transform="translate(-180 1446)">
      <ellipse id="Ellipse_7-3" data-name="Ellipse 7" cx="82.5" cy="83" rx="82.5" ry="83" transform="translate(-796 -483)" fill="rgba(255,134,73,0.91)"/>
    </g>
    <g id="svg3-2" data-name="svg3" transform="translate(1798 490)">
      <ellipse id="Ellipse_7-4" data-name="Ellipse 7" cx="349.5" cy="347.5" rx="349.5" ry="347.5" transform="translate(-796 -483)" fill="rgba(255,134,73,0.31)"/>
    </g>
    <g id="svg3-3" data-name="svg3" transform="translate(1042 1121.419)">
      <ellipse id="Ellipse_7-5" data-name="Ellipse 7" cx="33" cy="32" rx="33" ry="32" transform="translate(-796 -483.419)" fill="#ff8649"/>
    </g>
    <g id="svg3-4" data-name="svg3" transform="translate(39 810.419)">
      <ellipse id="Ellipse_7-6" data-name="Ellipse 7" cx="70.5" cy="67.5" rx="70.5" ry="67.5" transform="translate(-796 -483.419)" fill="rgba(255,199,99,0.94)"/>
    </g>
    <g id="svg5" transform="translate(1936 -55)">
      <g id="Rectangle_1" data-name="Rectangle 1" transform="translate(-697 -156)" fill="#fff" stroke="#ff5f25" stroke-width="15">
        <rect width="168" height="83" stroke="none"/>
        <rect x="7.5" y="7.5" width="153" height="68" fill="none"/>
      </g>
    </g>
    <g id="svg6" transform="translate(1635 1148)">
      <g id="Rectangle_2" data-name="Rectangle 2" transform="translate(-783 -285)" fill="#fff" stroke="#ffcd25" stroke-width="13">
        <rect width="100" height="100" stroke="none"/>
        <rect x="6.5" y="6.5" width="87" height="87" fill="none"/>
      </g>
    </g>
  </g>
</svg>
