<svg xmlns="http://www.w3.org/2000/svg" width="2307" height="934" viewBox="0 0 2307 934">
  <g id="Group_4" data-name="Group 4" transform="translate(796 128)">
    <g id="svg2" transform="translate(2268 1402)">
      <g id="Ellipse_7" data-name="Ellipse 7" transform="translate(-894 -732)" fill="#fff" stroke="#ff8649" stroke-width="5">
        <ellipse cx="68.5" cy="68" rx="68.5" ry="68" stroke="none"/>
        <ellipse cx="68.5" cy="68" rx="66" ry="65.5" fill="none"/>
      </g>
      <g id="Ellipse_8" data-name="Ellipse 8" transform="translate(-856 -691)" fill="#ff8649" stroke="#ff8649" stroke-width="5">
        <ellipse cx="30.5" cy="27" rx="30.5" ry="27" stroke="none"/>
        <ellipse cx="30.5" cy="27" rx="28" ry="24.5" fill="none"/>
      </g>
    </g>
    <g id="svg1" transform="translate(344 355)">
      <g id="Ellipse_7-2" data-name="Ellipse 7" transform="translate(-796 -483)" fill="#fdfdfd" stroke="rgba(255,206,73,0.98)" stroke-width="10">
        <ellipse cx="68" cy="67.5" rx="68" ry="67.5" stroke="none"/>
        <ellipse cx="68" cy="67.5" rx="63" ry="62.5" fill="none"/>
      </g>
      <g id="Ellipse_8-2" data-name="Ellipse 8" transform="translate(-767 -451)" fill="#fdfdfd" stroke="rgba(255,206,73,0.98)" stroke-width="8">
        <ellipse cx="39" cy="37" rx="39" ry="37" stroke="none"/>
        <ellipse cx="39" cy="37" rx="35" ry="33" fill="none"/>
      </g>
    </g>
    <g id="svg3" transform="translate(1042 1121.419)">
      <ellipse id="Ellipse_7-3" data-name="Ellipse 7" cx="33" cy="32" rx="33" ry="32" transform="translate(-796 -483.419)" fill="#ff8649"/>
    </g>
    <g id="Group-bars1" transform="translate(7030.352 942.817) rotate(90)">
      <g id="svg3-2" data-name="svg3" transform="translate(-990.133 7087.484)">
        <circle id="Ellipse_7-4" data-name="Ellipse 7" cx="8.5" cy="8.5" r="8.5" transform="translate(13 7)" fill="rgba(86,82,195,0.65)"/>
        <circle id="Ellipse_7-5" data-name="Ellipse 7" cx="8.5" cy="8.5" r="8.5" transform="translate(67 7)" fill="rgba(86,82,195,0.65)"/>
        <circle id="Ellipse_7-6" data-name="Ellipse 7" cx="8.5" cy="8.5" r="8.5" transform="translate(40 7)" fill="rgba(86,82,195,0.65)"/>
      </g>
      <g id="svg3-3" data-name="svg3" transform="translate(-906.133 7087.484)">
        <circle id="Ellipse_7-7" data-name="Ellipse 7" cx="8.5" cy="8.5" r="8.5" transform="translate(13 7)" fill="rgba(86,82,195,0.65)"/>
        <circle id="Ellipse_7-8" data-name="Ellipse 7" cx="8.5" cy="8.5" r="8.5" transform="translate(67 7)" fill="rgba(86,82,195,0.65)"/>
        <circle id="Ellipse_7-9" data-name="Ellipse 7" cx="8.5" cy="8.5" r="8.5" transform="translate(40 7)" fill="rgba(86,82,195,0.65)"/>
      </g>
      <g id="svg3-4" data-name="svg3" transform="translate(-990.133 7062.484)">
        <circle id="Ellipse_7-10" data-name="Ellipse 7" cx="8.5" cy="8.5" r="8.5" transform="translate(13 7)" fill="rgba(86,82,195,0.65)"/>
        <circle id="Ellipse_7-11" data-name="Ellipse 7" cx="8.5" cy="8.5" r="8.5" transform="translate(67 7)" fill="rgba(86,82,195,0.65)"/>
        <circle id="Ellipse_7-12" data-name="Ellipse 7" cx="8.5" cy="8.5" r="8.5" transform="translate(40 7)" fill="rgba(86,82,195,0.65)"/>
      </g>
      <g id="svg3-5" data-name="svg3" transform="translate(-906.133 7062.484)">
        <circle id="Ellipse_7-13" data-name="Ellipse 7" cx="8.5" cy="8.5" r="8.5" transform="translate(13 7)" fill="rgba(86,82,195,0.65)"/>
        <circle id="Ellipse_7-14" data-name="Ellipse 7" cx="8.5" cy="8.5" r="8.5" transform="translate(67 7)" fill="rgba(86,82,195,0.65)"/>
        <circle id="Ellipse_7-15" data-name="Ellipse 7" cx="8.5" cy="8.5" r="8.5" transform="translate(40 7)" fill="rgba(86,82,195,0.65)"/>
      </g>
      <g id="svg3-6" data-name="svg3" transform="translate(-990.133 7037.484)">
        <circle id="Ellipse_7-16" data-name="Ellipse 7" cx="8.5" cy="8.5" r="8.5" transform="translate(13 7)" fill="rgba(86,82,195,0.65)"/>
        <circle id="Ellipse_7-17" data-name="Ellipse 7" cx="8.5" cy="8.5" r="8.5" transform="translate(67 7)" fill="rgba(86,82,195,0.65)"/>
        <circle id="Ellipse_7-18" data-name="Ellipse 7" cx="8.5" cy="8.5" r="8.5" transform="translate(40 7)" fill="rgba(86,82,195,0.65)"/>
      </g>
      <g id="svg3-7" data-name="svg3" transform="translate(-906.133 7037.484)">
        <circle id="Ellipse_7-19" data-name="Ellipse 7" cx="8.5" cy="8.5" r="8.5" transform="translate(13 7)" fill="rgba(86,82,195,0.65)"/>
        <circle id="Ellipse_7-20" data-name="Ellipse 7" cx="8.5" cy="8.5" r="8.5" transform="translate(67 7)" fill="rgba(86,82,195,0.65)"/>
        <circle id="Ellipse_7-21" data-name="Ellipse 7" cx="8.5" cy="8.5" r="8.5" transform="translate(40 7)" fill="rgba(86,82,195,0.65)"/>
      </g>
    </g>
    <g id="Group-bars1-2" data-name="Group-bars1" transform="translate(8319.352 942.817) rotate(90)">
      <g id="svg3-8" data-name="svg3" transform="translate(-990.133 7087.484)">
        <circle id="Ellipse_7-22" data-name="Ellipse 7" cx="8.5" cy="8.5" r="8.5" transform="translate(13 7)" fill="rgba(86,82,195,0.65)"/>
        <circle id="Ellipse_7-23" data-name="Ellipse 7" cx="8.5" cy="8.5" r="8.5" transform="translate(67 7)" fill="rgba(86,82,195,0.65)"/>
        <circle id="Ellipse_7-24" data-name="Ellipse 7" cx="8.5" cy="8.5" r="8.5" transform="translate(40 7)" fill="rgba(86,82,195,0.65)"/>
      </g>
      <g id="svg3-9" data-name="svg3" transform="translate(-906.133 7087.484)">
        <circle id="Ellipse_7-25" data-name="Ellipse 7" cx="8.5" cy="8.5" r="8.5" transform="translate(13 7)" fill="rgba(86,82,195,0.65)"/>
        <circle id="Ellipse_7-26" data-name="Ellipse 7" cx="8.5" cy="8.5" r="8.5" transform="translate(67 7)" fill="rgba(86,82,195,0.65)"/>
        <circle id="Ellipse_7-27" data-name="Ellipse 7" cx="8.5" cy="8.5" r="8.5" transform="translate(40 7)" fill="rgba(86,82,195,0.65)"/>
      </g>
      <g id="svg3-10" data-name="svg3" transform="translate(-990.133 7062.484)">
        <circle id="Ellipse_7-28" data-name="Ellipse 7" cx="8.5" cy="8.5" r="8.5" transform="translate(13 7)" fill="rgba(86,82,195,0.65)"/>
        <circle id="Ellipse_7-29" data-name="Ellipse 7" cx="8.5" cy="8.5" r="8.5" transform="translate(67 7)" fill="rgba(86,82,195,0.65)"/>
        <circle id="Ellipse_7-30" data-name="Ellipse 7" cx="8.5" cy="8.5" r="8.5" transform="translate(40 7)" fill="rgba(86,82,195,0.65)"/>
      </g>
      <g id="svg3-11" data-name="svg3" transform="translate(-906.133 7062.484)">
        <circle id="Ellipse_7-31" data-name="Ellipse 7" cx="8.5" cy="8.5" r="8.5" transform="translate(13 7)" fill="rgba(86,82,195,0.65)"/>
        <circle id="Ellipse_7-32" data-name="Ellipse 7" cx="8.5" cy="8.5" r="8.5" transform="translate(67 7)" fill="rgba(86,82,195,0.65)"/>
        <circle id="Ellipse_7-33" data-name="Ellipse 7" cx="8.5" cy="8.5" r="8.5" transform="translate(40 7)" fill="rgba(86,82,195,0.65)"/>
      </g>
      <g id="svg3-12" data-name="svg3" transform="translate(-990.133 7037.484)">
        <circle id="Ellipse_7-34" data-name="Ellipse 7" cx="8.5" cy="8.5" r="8.5" transform="translate(13 7)" fill="rgba(86,82,195,0.65)"/>
        <circle id="Ellipse_7-35" data-name="Ellipse 7" cx="8.5" cy="8.5" r="8.5" transform="translate(67 7)" fill="rgba(86,82,195,0.65)"/>
        <circle id="Ellipse_7-36" data-name="Ellipse 7" cx="8.5" cy="8.5" r="8.5" transform="translate(40 7)" fill="rgba(86,82,195,0.65)"/>
      </g>
      <g id="svg3-13" data-name="svg3" transform="translate(-906.133 7037.484)">
        <circle id="Ellipse_7-37" data-name="Ellipse 7" cx="8.5" cy="8.5" r="8.5" transform="translate(13 7)" fill="rgba(86,82,195,0.65)"/>
        <circle id="Ellipse_7-38" data-name="Ellipse 7" cx="8.5" cy="8.5" r="8.5" transform="translate(67 7)" fill="rgba(86,82,195,0.65)"/>
        <circle id="Ellipse_7-39" data-name="Ellipse 7" cx="8.5" cy="8.5" r="8.5" transform="translate(40 7)" fill="rgba(86,82,195,0.65)"/>
      </g>
    </g>
    <g id="svg3-14" data-name="svg3" transform="translate(0 896.419)">
      <ellipse id="Ellipse_7-40" data-name="Ellipse 7" cx="70.5" cy="67.5" rx="70.5" ry="67.5" transform="translate(-796 -483.419)" fill="rgba(255,199,99,0.94)"/>
    </g>
  </g>
</svg>
