<svg xmlns="http://www.w3.org/2000/svg" width="2066" height="1074" viewBox="0 0 2066 1074">
  <g id="Group_2" data-name="Group 2" transform="translate(387 211)">
    <g id="svg3" transform="translate(884 1107.419)">
      <ellipse id="Ellipse_7" data-name="Ellipse 7" cx="33" cy="32" rx="33" ry="32" transform="translate(-796 -483.419)" fill="#ff8649"/>
    </g>
    <g id="svg4" transform="translate(1280 1007)">
      <ellipse id="Ellipse_7-2" data-name="Ellipse 7" cx="58" cy="58.5" rx="58" ry="58.5" transform="translate(-702 -500)" fill="#ff4949"/>
      <g id="Group_13" data-name="Group 13" transform="translate(-236 -373)">
        <g id="Group_1" data-name="Group 1" transform="translate(-1846.618 -963.33)">
          <circle id="Ellipse_7-3" data-name="Ellipse 7" cx="3" cy="3" r="3" transform="matrix(-0.017, 1, -1, -0.017, 494.722, 200.185)" fill="rgba(7,81,255,0.65)"/>
          <circle id="Ellipse_7-4" data-name="Ellipse 7" cx="3" cy="3" r="3" transform="matrix(-0.017, 1, -1, -0.017, 544.722, 200.185)" fill="rgba(7,81,255,0.65)"/>
          <circle id="Ellipse_7-5" data-name="Ellipse 7" cx="3" cy="3" r="3" transform="matrix(-0.017, 1, -1, -0.017, 519.722, 200.185)" fill="rgba(7,81,255,0.65)"/>
        </g>
        <g id="Group_2-2" data-name="Group 2" transform="translate(-1919.618 -963.33)">
          <circle id="Ellipse_7-6" data-name="Ellipse 7" cx="3" cy="3" r="3" transform="matrix(-0.017, 1, -1, -0.017, 494.722, 200.185)" fill="rgba(7,81,255,0.65)"/>
          <circle id="Ellipse_7-7" data-name="Ellipse 7" cx="3" cy="3" r="3" transform="matrix(-0.017, 1, -1, -0.017, 544.722, 200.185)" fill="rgba(7,81,255,0.65)"/>
          <circle id="Ellipse_7-8" data-name="Ellipse 7" cx="3" cy="3" r="3" transform="matrix(-0.017, 1, -1, -0.017, 519.722, 200.185)" fill="rgba(7,81,255,0.65)"/>
        </g>
        <g id="Group_3" data-name="Group 3" transform="translate(-1846.618 -897.33)">
          <circle id="Ellipse_7-9" data-name="Ellipse 7" cx="3" cy="3" r="3" transform="matrix(-0.017, 1, -1, -0.017, 494.722, 200.185)" fill="rgba(7,81,255,0.65)"/>
          <circle id="Ellipse_7-10" data-name="Ellipse 7" cx="3" cy="3" r="3" transform="matrix(-0.017, 1, -1, -0.017, 544.722, 200.185)" fill="rgba(7,81,255,0.65)"/>
          <circle id="Ellipse_7-11" data-name="Ellipse 7" cx="3" cy="3" r="3" transform="matrix(-0.017, 1, -1, -0.017, 519.722, 200.185)" fill="rgba(7,81,255,0.65)"/>
        </g>
        <g id="Group_4" data-name="Group 4" transform="translate(-1919.618 -897.33)">
          <circle id="Ellipse_7-12" data-name="Ellipse 7" cx="3" cy="3" r="3" transform="matrix(-0.017, 1, -1, -0.017, 494.722, 200.185)" fill="rgba(7,81,255,0.65)"/>
          <circle id="Ellipse_7-13" data-name="Ellipse 7" cx="3" cy="3" r="3" transform="matrix(-0.017, 1, -1, -0.017, 544.722, 200.185)" fill="rgba(7,81,255,0.65)"/>
          <circle id="Ellipse_7-14" data-name="Ellipse 7" cx="3" cy="3" r="3" transform="matrix(-0.017, 1, -1, -0.017, 519.722, 200.185)" fill="rgba(7,81,255,0.65)"/>
        </g>
        <g id="Group_5" data-name="Group 5" transform="translate(-1846.618 -930.33)">
          <circle id="Ellipse_7-15" data-name="Ellipse 7" cx="3" cy="3" r="3" transform="matrix(-0.017, 1, -1, -0.017, 494.722, 200.185)" fill="rgba(7,81,255,0.65)"/>
          <circle id="Ellipse_7-16" data-name="Ellipse 7" cx="3" cy="3" r="3" transform="matrix(-0.017, 1, -1, -0.017, 544.722, 200.185)" fill="rgba(7,81,255,0.65)"/>
          <circle id="Ellipse_7-17" data-name="Ellipse 7" cx="3" cy="3" r="3" transform="matrix(-0.017, 1, -1, -0.017, 519.722, 200.185)" fill="rgba(7,81,255,0.65)"/>
        </g>
        <g id="Group_6" data-name="Group 6" transform="translate(-1919.618 -930.33)">
          <circle id="Ellipse_7-18" data-name="Ellipse 7" cx="3" cy="3" r="3" transform="matrix(-0.017, 1, -1, -0.017, 494.722, 200.185)" fill="rgba(7,81,255,0.65)"/>
          <circle id="Ellipse_7-19" data-name="Ellipse 7" cx="3" cy="3" r="3" transform="matrix(-0.017, 1, -1, -0.017, 544.722, 200.185)" fill="rgba(7,81,255,0.65)"/>
          <circle id="Ellipse_7-20" data-name="Ellipse 7" cx="3" cy="3" r="3" transform="matrix(-0.017, 1, -1, -0.017, 519.722, 200.185)" fill="rgba(7,81,255,0.65)"/>
        </g>
        <g id="Group_7" data-name="Group 7" transform="translate(-1846.618 -947.33)">
          <circle id="Ellipse_7-21" data-name="Ellipse 7" cx="3" cy="3" r="3" transform="matrix(-0.017, 1, -1, -0.017, 494.722, 200.185)" fill="rgba(7,81,255,0.65)"/>
          <circle id="Ellipse_7-22" data-name="Ellipse 7" cx="3" cy="3" r="3" transform="matrix(-0.017, 1, -1, -0.017, 544.722, 200.185)" fill="rgba(7,81,255,0.65)"/>
          <circle id="Ellipse_7-23" data-name="Ellipse 7" cx="3" cy="3" r="3" transform="matrix(-0.017, 1, -1, -0.017, 519.722, 200.185)" fill="rgba(7,81,255,0.65)"/>
        </g>
        <g id="Group_8" data-name="Group 8" transform="translate(-1919.618 -947.33)">
          <circle id="Ellipse_7-24" data-name="Ellipse 7" cx="3" cy="3" r="3" transform="matrix(-0.017, 1, -1, -0.017, 494.722, 200.185)" fill="rgba(7,81,255,0.65)"/>
          <circle id="Ellipse_7-25" data-name="Ellipse 7" cx="3" cy="3" r="3" transform="matrix(-0.017, 1, -1, -0.017, 544.722, 200.185)" fill="rgba(7,81,255,0.65)"/>
          <circle id="Ellipse_7-26" data-name="Ellipse 7" cx="3" cy="3" r="3" transform="matrix(-0.017, 1, -1, -0.017, 519.722, 200.185)" fill="rgba(7,81,255,0.65)"/>
        </g>
        <g id="Group_9" data-name="Group 9" transform="translate(-1846.618 -880.33)">
          <circle id="Ellipse_7-27" data-name="Ellipse 7" cx="3" cy="3" r="3" transform="matrix(-0.017, 1, -1, -0.017, 494.722, 200.185)" fill="rgba(7,81,255,0.65)"/>
          <circle id="Ellipse_7-28" data-name="Ellipse 7" cx="3" cy="3" r="3" transform="matrix(-0.017, 1, -1, -0.017, 544.722, 200.185)" fill="rgba(7,81,255,0.65)"/>
          <circle id="Ellipse_7-29" data-name="Ellipse 7" cx="3" cy="3" r="3" transform="matrix(-0.017, 1, -1, -0.017, 519.722, 200.185)" fill="rgba(7,81,255,0.65)"/>
        </g>
        <g id="Group_10" data-name="Group 10" transform="translate(-1919.618 -880.33)">
          <circle id="Ellipse_7-30" data-name="Ellipse 7" cx="3" cy="3" r="3" transform="matrix(-0.017, 1, -1, -0.017, 494.722, 200.185)" fill="rgba(7,81,255,0.65)"/>
          <circle id="Ellipse_7-31" data-name="Ellipse 7" cx="3" cy="3" r="3" transform="matrix(-0.017, 1, -1, -0.017, 544.722, 200.185)" fill="rgba(7,81,255,0.65)"/>
          <circle id="Ellipse_7-32" data-name="Ellipse 7" cx="3" cy="3" r="3" transform="matrix(-0.017, 1, -1, -0.017, 519.722, 200.185)" fill="rgba(7,81,255,0.65)"/>
        </g>
        <g id="Group_11" data-name="Group 11" transform="translate(-1846.618 -914.33)">
          <circle id="Ellipse_7-33" data-name="Ellipse 7" cx="3" cy="3" r="3" transform="matrix(-0.017, 1, -1, -0.017, 494.722, 200.185)" fill="rgba(7,81,255,0.65)"/>
          <circle id="Ellipse_7-34" data-name="Ellipse 7" cx="3" cy="3" r="3" transform="matrix(-0.017, 1, -1, -0.017, 544.722, 200.185)" fill="rgba(7,81,255,0.65)"/>
          <circle id="Ellipse_7-35" data-name="Ellipse 7" cx="3" cy="3" r="3" transform="matrix(-0.017, 1, -1, -0.017, 519.722, 200.185)" fill="rgba(7,81,255,0.65)"/>
        </g>
        <g id="Group_12" data-name="Group 12" transform="translate(-1919.618 -914.33)">
          <circle id="Ellipse_7-36" data-name="Ellipse 7" cx="3" cy="3" r="3" transform="matrix(-0.017, 1, -1, -0.017, 494.722, 200.185)" fill="rgba(7,81,255,0.65)"/>
          <circle id="Ellipse_7-37" data-name="Ellipse 7" cx="3" cy="3" r="3" transform="matrix(-0.017, 1, -1, -0.017, 544.722, 200.185)" fill="rgba(7,81,255,0.65)"/>
          <circle id="Ellipse_7-38" data-name="Ellipse 7" cx="3" cy="3" r="3" transform="matrix(-0.017, 1, -1, -0.017, 519.722, 200.185)" fill="rgba(7,81,255,0.65)"/>
        </g>
      </g>
    </g>
    <g id="svg5" transform="translate(1936 -55)">
      <g id="Rectangle_1" data-name="Rectangle 1" transform="translate(-697 -156)" fill="#fff" stroke="#ff5f25" stroke-width="19">
        <rect width="180" height="180" stroke="none"/>
        <rect x="9.5" y="9.5" width="161" height="161" fill="none"/>
      </g>
    </g>
    <g id="svg6" transform="translate(2362 1048)">
      <g id="Rectangle_2" data-name="Rectangle 2" transform="translate(-783 -285)" fill="#fff" stroke="rgba(255,205,37,0.48)" stroke-width="13">
        <rect width="100" height="100" stroke="none"/>
        <rect x="6.5" y="6.5" width="87" height="87" fill="none"/>
      </g>
    </g>
  </g>
</svg>
