<svg xmlns="http://www.w3.org/2000/svg" width="155" height="67" viewBox="0 0 155 67">
  <g id="Group-bars1" transform="translate(977.133 -7044.484)">
    <g id="svg3" transform="translate(-990.133 7087.484)">
      <circle id="Ellipse_7" data-name="Ellipse 7" cx="8.5" cy="8.5" r="8.5" transform="translate(13 7)" fill="rgba(86,82,195,0.94)"/>
      <circle id="Ellipse_7-2" data-name="Ellipse 7" cx="8.5" cy="8.5" r="8.5" transform="translate(67 7)" fill="rgba(86,82,195,0.94)"/>
      <circle id="Ellipse_7-3" data-name="Ellipse 7" cx="8.5" cy="8.5" r="8.5" transform="translate(40 7)" fill="rgba(86,82,195,0.94)"/>
    </g>
    <g id="svg3-2" data-name="svg3" transform="translate(-906.133 7087.484)">
      <circle id="Ellipse_7-4" data-name="Ellipse 7" cx="8.5" cy="8.5" r="8.5" transform="translate(13 7)" fill="rgba(86,82,195,0.94)"/>
      <circle id="Ellipse_7-5" data-name="Ellipse 7" cx="8.5" cy="8.5" r="8.5" transform="translate(67 7)" fill="rgba(86,82,195,0.94)"/>
      <circle id="Ellipse_7-6" data-name="Ellipse 7" cx="8.5" cy="8.5" r="8.5" transform="translate(40 7)" fill="rgba(86,82,195,0.94)"/>
    </g>
    <g id="svg3-3" data-name="svg3" transform="translate(-990.133 7062.484)">
      <circle id="Ellipse_7-7" data-name="Ellipse 7" cx="8.5" cy="8.5" r="8.5" transform="translate(13 7)" fill="rgba(86,82,195,0.94)"/>
      <circle id="Ellipse_7-8" data-name="Ellipse 7" cx="8.5" cy="8.5" r="8.5" transform="translate(67 7)" fill="rgba(86,82,195,0.94)"/>
      <circle id="Ellipse_7-9" data-name="Ellipse 7" cx="8.5" cy="8.5" r="8.5" transform="translate(40 7)" fill="rgba(86,82,195,0.94)"/>
    </g>
    <g id="svg3-4" data-name="svg3" transform="translate(-906.133 7062.484)">
      <circle id="Ellipse_7-10" data-name="Ellipse 7" cx="8.5" cy="8.5" r="8.5" transform="translate(13 7)" fill="rgba(86,82,195,0.94)"/>
      <circle id="Ellipse_7-11" data-name="Ellipse 7" cx="8.5" cy="8.5" r="8.5" transform="translate(67 7)" fill="rgba(86,82,195,0.94)"/>
      <circle id="Ellipse_7-12" data-name="Ellipse 7" cx="8.5" cy="8.5" r="8.5" transform="translate(40 7)" fill="rgba(86,82,195,0.94)"/>
    </g>
    <g id="svg3-5" data-name="svg3" transform="translate(-990.133 7037.484)">
      <circle id="Ellipse_7-13" data-name="Ellipse 7" cx="8.5" cy="8.5" r="8.5" transform="translate(13 7)" fill="rgba(86,82,195,0.94)"/>
      <circle id="Ellipse_7-14" data-name="Ellipse 7" cx="8.5" cy="8.5" r="8.5" transform="translate(67 7)" fill="rgba(86,82,195,0.94)"/>
      <circle id="Ellipse_7-15" data-name="Ellipse 7" cx="8.5" cy="8.5" r="8.5" transform="translate(40 7)" fill="rgba(86,82,195,0.94)"/>
    </g>
    <g id="svg3-6" data-name="svg3" transform="translate(-906.133 7037.484)">
      <circle id="Ellipse_7-16" data-name="Ellipse 7" cx="8.5" cy="8.5" r="8.5" transform="translate(13 7)" fill="rgba(86,82,195,0.94)"/>
      <circle id="Ellipse_7-17" data-name="Ellipse 7" cx="8.5" cy="8.5" r="8.5" transform="translate(67 7)" fill="rgba(86,82,195,0.94)"/>
      <circle id="Ellipse_7-18" data-name="Ellipse 7" cx="8.5" cy="8.5" r="8.5" transform="translate(40 7)" fill="rgba(86,82,195,0.94)"/>
    </g>
  </g>
</svg>
