<svg xmlns="http://www.w3.org/2000/svg" xmlns:xlink="http://www.w3.org/1999/xlink" width="1920" height="1080" viewBox="0 0 1920 1080">
  <defs>
    <clipPath id="clip-home-svg">
      <rect width="1920" height="1080"/>
    </clipPath>
  </defs>
  <g id="home-svg" clip-path="url(#clip-home-svg)">
    <rect width="1920" height="1080" fill="rgba(255,255,255,0)"/>
    <g id="Group_4" data-name="Group 4" transform="translate(808 155.742)">
      <path id="Path_1" data-name="Path 1" d="M744,0c410.9,0,744,326.384,744,729s-333.1,729-744,729S0,1131.616,0,729,333.1,0,744,0Z" transform="translate(17.814 -344.742)" fill="none"/>
      <ellipse id="Ellipse_2" data-name="Ellipse 2" cx="723" cy="706.5" rx="723" ry="706.5" transform="translate(-48.186 -322.242)" fill="rgba(76,103,196,0.22)"/>
      <g id="svg3" transform="translate(-866.5 384.258)">
        <ellipse id="Ellipse_7" data-name="Ellipse 7" cx="70.5" cy="67.5" rx="70.5" ry="67.5" fill="rgba(255,142,99,0.94)"/>
      </g>
    </g>
    <g id="Group_1" data-name="Group 1" transform="translate(-90 -223.25)">
      <path id="Path_2" data-name="Path 2" d="M0,0,8.851,5.5,15.386,0,24.31,5.5,32.25,0,43.985,5.5,52.417,0l9.837,5.5L69.281,0H78.03" transform="translate(243.5 308.5)" fill="none" stroke="#0062ad" stroke-width="2"/>
      <path id="Path_3" data-name="Path 3" d="M0,0,8.851,5.5,15.386,0,24.31,5.5,32.25,0,43.985,5.5,52.417,0l9.837,5.5L69.281,0H78.03" transform="translate(243.5 337.501)" fill="none" stroke="#0062ad" stroke-width="2"/>
      <path id="Path_4" data-name="Path 4" d="M0,0,8.851,5.5,15.386,0,24.31,5.5,32.25,0,43.985,5.5,52.417,0l9.837,5.5L69.281,0H78.03" transform="translate(243.5 323.001)" fill="none" stroke="#0062ad" stroke-width="2"/>
    </g>
    <g id="Group_3" data-name="Group 3" transform="translate(442 495.75)">
      <path id="Path_2-2" data-name="Path 2" d="M0,0,8.851,5.5,15.386,0,24.31,5.5,32.25,0,43.985,5.5,52.417,0l9.837,5.5L69.281,0H78.03" transform="translate(243.5 308.5)" fill="none" stroke="#f80" stroke-width="2"/>
      <path id="Path_3-2" data-name="Path 3" d="M0,0,8.851,5.5,15.386,0,24.31,5.5,32.25,0,43.985,5.5,52.417,0l9.837,5.5L69.281,0H78.03" transform="translate(243.5 337.501)" fill="none" stroke="#f80" stroke-width="2"/>
      <path id="Path_4-2" data-name="Path 4" d="M0,0,8.851,5.5,15.386,0,24.31,5.5,32.25,0,43.985,5.5,52.417,0l9.837,5.5L69.281,0H78.03" transform="translate(243.5 323.001)" fill="none" stroke="#f80" stroke-width="2"/>
    </g>
    <g id="Group_2" data-name="Group 2" transform="translate(1323 -194)">
      <path id="Path_2-3" data-name="Path 2" d="M0,0,9.305,5.5,16.175,0l9.381,5.5L33.9,0,46.24,5.5,55.1,0,65.446,5.5,72.833,0h9.2" transform="translate(243.5 308.5)" fill="none" stroke="#fff" stroke-width="4"/>
      <path id="Path_3-3" data-name="Path 3" d="M0,0,9.305,5.5,16.175,0l9.381,5.5L33.9,0,46.24,5.5,55.1,0,65.446,5.5,72.833,0h9.2" transform="translate(243.5 332.501)" fill="none" stroke="#fff" stroke-width="4"/>
      <path id="Path_4-3" data-name="Path 4" d="M0,0,9.305,5.5,16.175,0l9.381,5.5L33.9,0,46.24,5.5,55.1,0,65.446,5.5,72.833,0h9.2" transform="translate(243.5 320.501)" fill="none" stroke="#fff" stroke-width="4"/>
    </g>
    <g id="Group_4-2" data-name="Group 4" transform="translate(244.345 18)">
      <circle id="Ellipse_7-2" data-name="Ellipse 7" cx="3" cy="3" r="3" transform="matrix(-0.017, 1, -1, -0.017, 494.722, 200.185)" fill="rgba(236,46,46,0.65)"/>
      <circle id="Ellipse_7-3" data-name="Ellipse 7" cx="3" cy="3" r="3" transform="matrix(-0.017, 1, -1, -0.017, 544.722, 200.185)" fill="rgba(236,46,46,0.65)"/>
      <circle id="Ellipse_7-4" data-name="Ellipse 7" cx="3" cy="3" r="3" transform="matrix(-0.017, 1, -1, -0.017, 519.722, 200.185)" fill="rgba(236,46,46,0.65)"/>
    </g>
    <g id="Group_25" data-name="Group 25" transform="translate(947.448 267.816)">
      <circle id="Ellipse_7-5" data-name="Ellipse 7" cx="3" cy="3" r="3" transform="matrix(-0.017, 1, -1, -0.017, 494.722, 200.185)" fill="rgba(168,168,168,0.65)"/>
      <circle id="Ellipse_7-6" data-name="Ellipse 7" cx="3" cy="3" r="3" transform="matrix(-0.017, 1, -1, -0.017, 544.722, 200.185)" fill="rgba(168,168,168,0.65)"/>
      <circle id="Ellipse_7-7" data-name="Ellipse 7" cx="3" cy="3" r="3" transform="matrix(-0.017, 1, -1, -0.017, 519.722, 200.185)" fill="rgba(168,168,168,0.65)"/>
    </g>
    <g id="Group_37" data-name="Group 37" transform="translate(1093.448 267.816)">
      <circle id="Ellipse_7-8" data-name="Ellipse 7" cx="3" cy="3" r="3" transform="matrix(-0.017, 1, -1, -0.017, 494.722, 200.185)" fill="rgba(168,168,168,0.65)"/>
      <circle id="Ellipse_7-9" data-name="Ellipse 7" cx="3" cy="3" r="3" transform="matrix(-0.017, 1, -1, -0.017, 544.722, 200.185)" fill="rgba(168,168,168,0.65)"/>
      <circle id="Ellipse_7-10" data-name="Ellipse 7" cx="3" cy="3" r="3" transform="matrix(-0.017, 1, -1, -0.017, 519.722, 200.185)" fill="rgba(168,168,168,0.65)"/>
    </g>
    <g id="Group_16" data-name="Group 16" transform="translate(171.345 18)">
      <circle id="Ellipse_7-11" data-name="Ellipse 7" cx="3" cy="3" r="3" transform="matrix(-0.017, 1, -1, -0.017, 494.722, 200.185)" fill="rgba(236,46,46,0.65)"/>
      <circle id="Ellipse_7-12" data-name="Ellipse 7" cx="3" cy="3" r="3" transform="matrix(-0.017, 1, -1, -0.017, 544.722, 200.185)" fill="rgba(236,46,46,0.65)"/>
      <circle id="Ellipse_7-13" data-name="Ellipse 7" cx="3" cy="3" r="3" transform="matrix(-0.017, 1, -1, -0.017, 519.722, 200.185)" fill="rgba(236,46,46,0.65)"/>
    </g>
    <g id="Group_64" data-name="Group 64" transform="translate(-3.655 -141)">
      <path id="Ellipse_7-14" data-name="Ellipse 7" d="M2.982,0A3,3,0,1,1,0,3,2.992,2.992,0,0,1,2.982,0Z" transform="matrix(-0.017, 1, -1, -0.017, 494.722, 200.201)" fill="rgba(0,17,255,0.65)"/>
      <path id="Ellipse_7-15" data-name="Ellipse 7" d="M2.982,0A3,3,0,1,1,0,3,2.992,2.992,0,0,1,2.982,0Z" transform="matrix(-0.017, 1, -1, -0.017, 523.719, 200.201)" fill="rgba(0,17,255,0.65)"/>
      <path id="Ellipse_7-16" data-name="Ellipse 7" d="M2.982,0A3,3,0,1,1,0,3,2.992,2.992,0,0,1,2.982,0Z" transform="matrix(-0.017, 1, -1, -0.017, 509.22, 200.201)" fill="rgba(0,17,255,0.65)"/>
    </g>
    <g id="Group_22" data-name="Group 22" transform="translate(874.448 267.816)">
      <circle id="Ellipse_7-17" data-name="Ellipse 7" cx="3" cy="3" r="3" transform="matrix(-0.017, 1, -1, -0.017, 494.722, 200.185)" fill="rgba(168,168,168,0.65)"/>
      <circle id="Ellipse_7-18" data-name="Ellipse 7" cx="3" cy="3" r="3" transform="matrix(-0.017, 1, -1, -0.017, 544.722, 200.185)" fill="rgba(168,168,168,0.65)"/>
      <circle id="Ellipse_7-19" data-name="Ellipse 7" cx="3" cy="3" r="3" transform="matrix(-0.017, 1, -1, -0.017, 519.722, 200.185)" fill="rgba(168,168,168,0.65)"/>
    </g>
    <g id="Group_34" data-name="Group 34" transform="translate(1020.448 267.816)">
      <circle id="Ellipse_7-20" data-name="Ellipse 7" cx="3" cy="3" r="3" transform="matrix(-0.017, 1, -1, -0.017, 494.722, 200.185)" fill="rgba(168,168,168,0.65)"/>
      <circle id="Ellipse_7-21" data-name="Ellipse 7" cx="3" cy="3" r="3" transform="matrix(-0.017, 1, -1, -0.017, 544.722, 200.185)" fill="rgba(168,168,168,0.65)"/>
      <circle id="Ellipse_7-22" data-name="Ellipse 7" cx="3" cy="3" r="3" transform="matrix(-0.017, 1, -1, -0.017, 519.722, 200.185)" fill="rgba(168,168,168,0.65)"/>
    </g>
    <g id="Group_58" data-name="Group 58" transform="translate(-391.618 638.67)">
      <circle id="Ellipse_7-23" data-name="Ellipse 7" cx="3" cy="3" r="3" transform="matrix(-0.017, 1, -1, -0.017, 494.722, 200.185)" fill="rgba(7,81,255,0.65)"/>
      <circle id="Ellipse_7-24" data-name="Ellipse 7" cx="3" cy="3" r="3" transform="matrix(-0.017, 1, -1, -0.017, 544.722, 200.185)" fill="rgba(7,81,255,0.65)"/>
      <circle id="Ellipse_7-25" data-name="Ellipse 7" cx="3" cy="3" r="3" transform="matrix(-0.017, 1, -1, -0.017, 519.722, 200.185)" fill="rgba(7,81,255,0.65)"/>
    </g>
    <g id="Group_52" data-name="Group 52" transform="translate(-464.618 638.67)">
      <circle id="Ellipse_7-26" data-name="Ellipse 7" cx="3" cy="3" r="3" transform="matrix(-0.017, 1, -1, -0.017, 494.722, 200.185)" fill="rgba(7,81,255,0.65)"/>
      <circle id="Ellipse_7-27" data-name="Ellipse 7" cx="3" cy="3" r="3" transform="matrix(-0.017, 1, -1, -0.017, 544.722, 200.185)" fill="rgba(7,81,255,0.65)"/>
      <circle id="Ellipse_7-28" data-name="Ellipse 7" cx="3" cy="3" r="3" transform="matrix(-0.017, 1, -1, -0.017, 519.722, 200.185)" fill="rgba(7,81,255,0.65)"/>
    </g>
    <g id="Group_6" data-name="Group 6" transform="translate(244.345 84)">
      <circle id="Ellipse_7-29" data-name="Ellipse 7" cx="3" cy="3" r="3" transform="matrix(-0.017, 1, -1, -0.017, 494.722, 200.185)" fill="rgba(236,46,46,0.65)"/>
      <circle id="Ellipse_7-30" data-name="Ellipse 7" cx="3" cy="3" r="3" transform="matrix(-0.017, 1, -1, -0.017, 544.722, 200.185)" fill="rgba(236,46,46,0.65)"/>
      <circle id="Ellipse_7-31" data-name="Ellipse 7" cx="3" cy="3" r="3" transform="matrix(-0.017, 1, -1, -0.017, 519.722, 200.185)" fill="rgba(236,46,46,0.65)"/>
    </g>
    <g id="Group_26" data-name="Group 26" transform="translate(947.448 333.816)">
      <circle id="Ellipse_7-32" data-name="Ellipse 7" cx="3" cy="3" r="3" transform="matrix(-0.017, 1, -1, -0.017, 494.722, 200.185)" fill="rgba(168,168,168,0.65)"/>
      <circle id="Ellipse_7-33" data-name="Ellipse 7" cx="3" cy="3" r="3" transform="matrix(-0.017, 1, -1, -0.017, 544.722, 200.185)" fill="rgba(168,168,168,0.65)"/>
      <circle id="Ellipse_7-34" data-name="Ellipse 7" cx="3" cy="3" r="3" transform="matrix(-0.017, 1, -1, -0.017, 519.722, 200.185)" fill="rgba(168,168,168,0.65)"/>
    </g>
    <g id="Group_38" data-name="Group 38" transform="translate(1093.448 333.816)">
      <circle id="Ellipse_7-35" data-name="Ellipse 7" cx="3" cy="3" r="3" transform="matrix(-0.017, 1, -1, -0.017, 494.722, 200.185)" fill="rgba(168,168,168,0.65)"/>
      <circle id="Ellipse_7-36" data-name="Ellipse 7" cx="3" cy="3" r="3" transform="matrix(-0.017, 1, -1, -0.017, 544.722, 200.185)" fill="rgba(168,168,168,0.65)"/>
      <circle id="Ellipse_7-37" data-name="Ellipse 7" cx="3" cy="3" r="3" transform="matrix(-0.017, 1, -1, -0.017, 519.722, 200.185)" fill="rgba(168,168,168,0.65)"/>
    </g>
    <g id="Group_21" data-name="Group 21" transform="translate(171.345 84)">
      <circle id="Ellipse_7-38" data-name="Ellipse 7" cx="3" cy="3" r="3" transform="matrix(-0.017, 1, -1, -0.017, 494.722, 200.185)" fill="rgba(236,46,46,0.65)"/>
      <circle id="Ellipse_7-39" data-name="Ellipse 7" cx="3" cy="3" r="3" transform="matrix(-0.017, 1, -1, -0.017, 544.722, 200.185)" fill="rgba(236,46,46,0.65)"/>
      <circle id="Ellipse_7-40" data-name="Ellipse 7" cx="3" cy="3" r="3" transform="matrix(-0.017, 1, -1, -0.017, 519.722, 200.185)" fill="rgba(236,46,46,0.65)"/>
    </g>
    <g id="Group_27" data-name="Group 27" transform="translate(874.448 333.816)">
      <circle id="Ellipse_7-41" data-name="Ellipse 7" cx="3" cy="3" r="3" transform="matrix(-0.017, 1, -1, -0.017, 494.722, 200.185)" fill="rgba(168,168,168,0.65)"/>
      <circle id="Ellipse_7-42" data-name="Ellipse 7" cx="3" cy="3" r="3" transform="matrix(-0.017, 1, -1, -0.017, 544.722, 200.185)" fill="rgba(168,168,168,0.65)"/>
      <circle id="Ellipse_7-43" data-name="Ellipse 7" cx="3" cy="3" r="3" transform="matrix(-0.017, 1, -1, -0.017, 519.722, 200.185)" fill="rgba(168,168,168,0.65)"/>
    </g>
    <g id="Group_39" data-name="Group 39" transform="translate(1020.448 333.816)">
      <circle id="Ellipse_7-44" data-name="Ellipse 7" cx="3" cy="3" r="3" transform="matrix(-0.017, 1, -1, -0.017, 494.722, 200.185)" fill="rgba(168,168,168,0.65)"/>
      <circle id="Ellipse_7-45" data-name="Ellipse 7" cx="3" cy="3" r="3" transform="matrix(-0.017, 1, -1, -0.017, 544.722, 200.185)" fill="rgba(168,168,168,0.65)"/>
      <circle id="Ellipse_7-46" data-name="Ellipse 7" cx="3" cy="3" r="3" transform="matrix(-0.017, 1, -1, -0.017, 519.722, 200.185)" fill="rgba(168,168,168,0.65)"/>
    </g>
    <g id="Group_59" data-name="Group 59" transform="translate(-391.618 704.67)">
      <circle id="Ellipse_7-47" data-name="Ellipse 7" cx="3" cy="3" r="3" transform="matrix(-0.017, 1, -1, -0.017, 494.722, 200.185)" fill="rgba(7,81,255,0.65)"/>
      <circle id="Ellipse_7-48" data-name="Ellipse 7" cx="3" cy="3" r="3" transform="matrix(-0.017, 1, -1, -0.017, 544.722, 200.185)" fill="rgba(7,81,255,0.65)"/>
      <circle id="Ellipse_7-49" data-name="Ellipse 7" cx="3" cy="3" r="3" transform="matrix(-0.017, 1, -1, -0.017, 519.722, 200.185)" fill="rgba(7,81,255,0.65)"/>
    </g>
    <g id="Group_56" data-name="Group 56" transform="translate(-464.618 704.67)">
      <circle id="Ellipse_7-50" data-name="Ellipse 7" cx="3" cy="3" r="3" transform="matrix(-0.017, 1, -1, -0.017, 494.722, 200.185)" fill="rgba(7,81,255,0.65)"/>
      <circle id="Ellipse_7-51" data-name="Ellipse 7" cx="3" cy="3" r="3" transform="matrix(-0.017, 1, -1, -0.017, 544.722, 200.185)" fill="rgba(7,81,255,0.65)"/>
      <circle id="Ellipse_7-52" data-name="Ellipse 7" cx="3" cy="3" r="3" transform="matrix(-0.017, 1, -1, -0.017, 519.722, 200.185)" fill="rgba(7,81,255,0.65)"/>
    </g>
    <g id="Group_8" data-name="Group 8" transform="translate(244.345 51)">
      <circle id="Ellipse_7-53" data-name="Ellipse 7" cx="3" cy="3" r="3" transform="matrix(-0.017, 1, -1, -0.017, 494.722, 200.185)" fill="rgba(236,46,46,0.65)"/>
      <circle id="Ellipse_7-54" data-name="Ellipse 7" cx="3" cy="3" r="3" transform="matrix(-0.017, 1, -1, -0.017, 544.722, 200.185)" fill="rgba(236,46,46,0.65)"/>
      <circle id="Ellipse_7-55" data-name="Ellipse 7" cx="3" cy="3" r="3" transform="matrix(-0.017, 1, -1, -0.017, 519.722, 200.185)" fill="rgba(236,46,46,0.65)"/>
    </g>
    <g id="Group_28" data-name="Group 28" transform="translate(947.448 300.816)">
      <circle id="Ellipse_7-56" data-name="Ellipse 7" cx="3" cy="3" r="3" transform="matrix(-0.017, 1, -1, -0.017, 494.722, 200.185)" fill="rgba(168,168,168,0.65)"/>
      <circle id="Ellipse_7-57" data-name="Ellipse 7" cx="3" cy="3" r="3" transform="matrix(-0.017, 1, -1, -0.017, 544.722, 200.185)" fill="rgba(168,168,168,0.65)"/>
      <circle id="Ellipse_7-58" data-name="Ellipse 7" cx="3" cy="3" r="3" transform="matrix(-0.017, 1, -1, -0.017, 519.722, 200.185)" fill="rgba(168,168,168,0.65)"/>
    </g>
    <g id="Group_40" data-name="Group 40" transform="translate(1093.448 300.816)">
      <circle id="Ellipse_7-59" data-name="Ellipse 7" cx="3" cy="3" r="3" transform="matrix(-0.017, 1, -1, -0.017, 494.722, 200.185)" fill="rgba(168,168,168,0.65)"/>
      <circle id="Ellipse_7-60" data-name="Ellipse 7" cx="3" cy="3" r="3" transform="matrix(-0.017, 1, -1, -0.017, 544.722, 200.185)" fill="rgba(168,168,168,0.65)"/>
      <circle id="Ellipse_7-61" data-name="Ellipse 7" cx="3" cy="3" r="3" transform="matrix(-0.017, 1, -1, -0.017, 519.722, 200.185)" fill="rgba(168,168,168,0.65)"/>
    </g>
    <g id="Group_17" data-name="Group 17" transform="translate(171.345 51)">
      <circle id="Ellipse_7-62" data-name="Ellipse 7" cx="3" cy="3" r="3" transform="matrix(-0.017, 1, -1, -0.017, 494.722, 200.185)" fill="rgba(236,46,46,0.65)"/>
      <circle id="Ellipse_7-63" data-name="Ellipse 7" cx="3" cy="3" r="3" transform="matrix(-0.017, 1, -1, -0.017, 544.722, 200.185)" fill="rgba(236,46,46,0.65)"/>
      <circle id="Ellipse_7-64" data-name="Ellipse 7" cx="3" cy="3" r="3" transform="matrix(-0.017, 1, -1, -0.017, 519.722, 200.185)" fill="rgba(236,46,46,0.65)"/>
    </g>
    <g id="Group_66" data-name="Group 66" transform="translate(-3.655 -108)">
      <path id="Ellipse_7-65" data-name="Ellipse 7" d="M2.982,0A3,3,0,1,1,0,3,2.992,2.992,0,0,1,2.982,0Z" transform="matrix(-0.017, 1, -1, -0.017, 494.722, 200.201)" fill="rgba(0,17,255,0.65)"/>
      <path id="Ellipse_7-66" data-name="Ellipse 7" d="M2.982,0A3,3,0,1,1,0,3,2.992,2.992,0,0,1,2.982,0Z" transform="matrix(-0.017, 1, -1, -0.017, 523.719, 200.201)" fill="rgba(0,17,255,0.65)"/>
      <path id="Ellipse_7-67" data-name="Ellipse 7" d="M2.982,0A3,3,0,1,1,0,3,2.992,2.992,0,0,1,2.982,0Z" transform="matrix(-0.017, 1, -1, -0.017, 509.22, 200.201)" fill="rgba(0,17,255,0.65)"/>
    </g>
    <g id="Group_29" data-name="Group 29" transform="translate(874.448 300.816)">
      <circle id="Ellipse_7-68" data-name="Ellipse 7" cx="3" cy="3" r="3" transform="matrix(-0.017, 1, -1, -0.017, 494.722, 200.185)" fill="rgba(168,168,168,0.65)"/>
      <circle id="Ellipse_7-69" data-name="Ellipse 7" cx="3" cy="3" r="3" transform="matrix(-0.017, 1, -1, -0.017, 544.722, 200.185)" fill="rgba(168,168,168,0.65)"/>
      <circle id="Ellipse_7-70" data-name="Ellipse 7" cx="3" cy="3" r="3" transform="matrix(-0.017, 1, -1, -0.017, 519.722, 200.185)" fill="rgba(168,168,168,0.65)"/>
    </g>
    <g id="Group_41" data-name="Group 41" transform="translate(1020.448 300.816)">
      <circle id="Ellipse_7-71" data-name="Ellipse 7" cx="3" cy="3" r="3" transform="matrix(-0.017, 1, -1, -0.017, 494.722, 200.185)" fill="rgba(168,168,168,0.65)"/>
      <circle id="Ellipse_7-72" data-name="Ellipse 7" cx="3" cy="3" r="3" transform="matrix(-0.017, 1, -1, -0.017, 544.722, 200.185)" fill="rgba(168,168,168,0.65)"/>
      <circle id="Ellipse_7-73" data-name="Ellipse 7" cx="3" cy="3" r="3" transform="matrix(-0.017, 1, -1, -0.017, 519.722, 200.185)" fill="rgba(168,168,168,0.65)"/>
    </g>
    <g id="Group_60" data-name="Group 60" transform="translate(-391.618 671.67)">
      <circle id="Ellipse_7-74" data-name="Ellipse 7" cx="3" cy="3" r="3" transform="matrix(-0.017, 1, -1, -0.017, 494.722, 200.185)" fill="rgba(7,81,255,0.65)"/>
      <circle id="Ellipse_7-75" data-name="Ellipse 7" cx="3" cy="3" r="3" transform="matrix(-0.017, 1, -1, -0.017, 544.722, 200.185)" fill="rgba(7,81,255,0.65)"/>
      <circle id="Ellipse_7-76" data-name="Ellipse 7" cx="3" cy="3" r="3" transform="matrix(-0.017, 1, -1, -0.017, 519.722, 200.185)" fill="rgba(7,81,255,0.65)"/>
    </g>
    <g id="Group_53" data-name="Group 53" transform="translate(-464.618 671.67)">
      <circle id="Ellipse_7-77" data-name="Ellipse 7" cx="3" cy="3" r="3" transform="matrix(-0.017, 1, -1, -0.017, 494.722, 200.185)" fill="rgba(7,81,255,0.65)"/>
      <circle id="Ellipse_7-78" data-name="Ellipse 7" cx="3" cy="3" r="3" transform="matrix(-0.017, 1, -1, -0.017, 544.722, 200.185)" fill="rgba(7,81,255,0.65)"/>
      <circle id="Ellipse_7-79" data-name="Ellipse 7" cx="3" cy="3" r="3" transform="matrix(-0.017, 1, -1, -0.017, 519.722, 200.185)" fill="rgba(7,81,255,0.65)"/>
    </g>
    <g id="Group_5" data-name="Group 5" transform="translate(244.345 34)">
      <circle id="Ellipse_7-80" data-name="Ellipse 7" cx="3" cy="3" r="3" transform="matrix(-0.017, 1, -1, -0.017, 494.722, 200.185)" fill="rgba(236,46,46,0.65)"/>
      <circle id="Ellipse_7-81" data-name="Ellipse 7" cx="3" cy="3" r="3" transform="matrix(-0.017, 1, -1, -0.017, 544.722, 200.185)" fill="rgba(236,46,46,0.65)"/>
      <circle id="Ellipse_7-82" data-name="Ellipse 7" cx="3" cy="3" r="3" transform="matrix(-0.017, 1, -1, -0.017, 519.722, 200.185)" fill="rgba(236,46,46,0.65)"/>
    </g>
    <g id="Group_30" data-name="Group 30" transform="translate(947.448 283.816)">
      <circle id="Ellipse_7-83" data-name="Ellipse 7" cx="3" cy="3" r="3" transform="matrix(-0.017, 1, -1, -0.017, 494.722, 200.185)" fill="rgba(168,168,168,0.65)"/>
      <circle id="Ellipse_7-84" data-name="Ellipse 7" cx="3" cy="3" r="3" transform="matrix(-0.017, 1, -1, -0.017, 544.722, 200.185)" fill="rgba(168,168,168,0.65)"/>
      <circle id="Ellipse_7-85" data-name="Ellipse 7" cx="3" cy="3" r="3" transform="matrix(-0.017, 1, -1, -0.017, 519.722, 200.185)" fill="rgba(168,168,168,0.65)"/>
    </g>
    <g id="Group_42" data-name="Group 42" transform="translate(1093.448 283.816)">
      <circle id="Ellipse_7-86" data-name="Ellipse 7" cx="3" cy="3" r="3" transform="matrix(-0.017, 1, -1, -0.017, 494.722, 200.185)" fill="rgba(168,168,168,0.65)"/>
      <circle id="Ellipse_7-87" data-name="Ellipse 7" cx="3" cy="3" r="3" transform="matrix(-0.017, 1, -1, -0.017, 544.722, 200.185)" fill="rgba(168,168,168,0.65)"/>
      <circle id="Ellipse_7-88" data-name="Ellipse 7" cx="3" cy="3" r="3" transform="matrix(-0.017, 1, -1, -0.017, 519.722, 200.185)" fill="rgba(168,168,168,0.65)"/>
    </g>
    <g id="Group_18" data-name="Group 18" transform="translate(171.345 34)">
      <circle id="Ellipse_7-89" data-name="Ellipse 7" cx="3" cy="3" r="3" transform="matrix(-0.017, 1, -1, -0.017, 494.722, 200.185)" fill="rgba(236,46,46,0.65)"/>
      <circle id="Ellipse_7-90" data-name="Ellipse 7" cx="3" cy="3" r="3" transform="matrix(-0.017, 1, -1, -0.017, 544.722, 200.185)" fill="rgba(236,46,46,0.65)"/>
      <circle id="Ellipse_7-91" data-name="Ellipse 7" cx="3" cy="3" r="3" transform="matrix(-0.017, 1, -1, -0.017, 519.722, 200.185)" fill="rgba(236,46,46,0.65)"/>
    </g>
    <g id="Group_65" data-name="Group 65" transform="translate(-3.655 -125)">
      <path id="Ellipse_7-92" data-name="Ellipse 7" d="M2.982,0A3,3,0,1,1,0,3,2.992,2.992,0,0,1,2.982,0Z" transform="matrix(-0.017, 1, -1, -0.017, 494.722, 200.201)" fill="rgba(0,17,255,0.65)"/>
      <path id="Ellipse_7-93" data-name="Ellipse 7" d="M2.982,0A3,3,0,1,1,0,3,2.992,2.992,0,0,1,2.982,0Z" transform="matrix(-0.017, 1, -1, -0.017, 523.719, 200.201)" fill="rgba(0,17,255,0.65)"/>
      <path id="Ellipse_7-94" data-name="Ellipse 7" d="M2.982,0A3,3,0,1,1,0,3,2.992,2.992,0,0,1,2.982,0Z" transform="matrix(-0.017, 1, -1, -0.017, 509.22, 200.201)" fill="rgba(0,17,255,0.65)"/>
    </g>
    <g id="Group_70" data-name="Group 70" transform="translate(0 -12)">
      <g id="Group_68" data-name="Group 68" transform="translate(879.4 -124.665)">
        <path id="Ellipse_7-95" data-name="Ellipse 7" d="M2.982,0A3,3,0,1,1,0,3,2.992,2.992,0,0,1,2.982,0Z" transform="matrix(-0.017, 1, -1, -0.017, 494.722, 200.201)" fill="#fff"/>
        <path id="Ellipse_7-96" data-name="Ellipse 7" d="M2.982,0A3,3,0,1,1,0,3,2.992,2.992,0,0,1,2.982,0Z" transform="matrix(-0.017, 1, -1, -0.017, 523.719, 200.201)" fill="#fff"/>
        <path id="Ellipse_7-97" data-name="Ellipse 7" d="M2.982,0A3,3,0,1,1,0,3,2.992,2.992,0,0,1,2.982,0Z" transform="matrix(-0.017, 1, -1, -0.017, 509.22, 200.201)" fill="#fff"/>
      </g>
      <g id="Group_67" data-name="Group 67" transform="translate(879.4 -91.665)">
        <path id="Ellipse_7-98" data-name="Ellipse 7" d="M2.982,0A3,3,0,1,1,0,3,2.992,2.992,0,0,1,2.982,0Z" transform="matrix(-0.017, 1, -1, -0.017, 494.722, 200.201)" fill="#fff"/>
        <path id="Ellipse_7-99" data-name="Ellipse 7" d="M2.982,0A3,3,0,1,1,0,3,2.992,2.992,0,0,1,2.982,0Z" transform="matrix(-0.017, 1, -1, -0.017, 523.719, 200.201)" fill="#fff"/>
        <path id="Ellipse_7-100" data-name="Ellipse 7" d="M2.982,0A3,3,0,1,1,0,3,2.992,2.992,0,0,1,2.982,0Z" transform="matrix(-0.017, 1, -1, -0.017, 509.22, 200.201)" fill="#fff"/>
      </g>
      <g id="Group_69" data-name="Group 69" transform="translate(879.4 -108.665)">
        <path id="Ellipse_7-101" data-name="Ellipse 7" d="M2.982,0A3,3,0,1,1,0,3,2.992,2.992,0,0,1,2.982,0Z" transform="matrix(-0.017, 1, -1, -0.017, 494.722, 200.201)" fill="#fff"/>
        <path id="Ellipse_7-102" data-name="Ellipse 7" d="M2.982,0A3,3,0,1,1,0,3,2.992,2.992,0,0,1,2.982,0Z" transform="matrix(-0.017, 1, -1, -0.017, 523.719, 200.201)" fill="#fff"/>
        <path id="Ellipse_7-103" data-name="Ellipse 7" d="M2.982,0A3,3,0,1,1,0,3,2.992,2.992,0,0,1,2.982,0Z" transform="matrix(-0.017, 1, -1, -0.017, 509.22, 200.201)" fill="#fff"/>
      </g>
    </g>
    <g id="Group_23" data-name="Group 23" transform="translate(874.448 283.816)">
      <circle id="Ellipse_7-104" data-name="Ellipse 7" cx="3" cy="3" r="3" transform="matrix(-0.017, 1, -1, -0.017, 494.722, 200.185)" fill="rgba(168,168,168,0.65)"/>
      <circle id="Ellipse_7-105" data-name="Ellipse 7" cx="3" cy="3" r="3" transform="matrix(-0.017, 1, -1, -0.017, 544.722, 200.185)" fill="rgba(168,168,168,0.65)"/>
      <circle id="Ellipse_7-106" data-name="Ellipse 7" cx="3" cy="3" r="3" transform="matrix(-0.017, 1, -1, -0.017, 519.722, 200.185)" fill="rgba(168,168,168,0.65)"/>
    </g>
    <g id="Group_35" data-name="Group 35" transform="translate(1020.448 283.816)">
      <circle id="Ellipse_7-107" data-name="Ellipse 7" cx="3" cy="3" r="3" transform="matrix(-0.017, 1, -1, -0.017, 494.722, 200.185)" fill="rgba(168,168,168,0.65)"/>
      <circle id="Ellipse_7-108" data-name="Ellipse 7" cx="3" cy="3" r="3" transform="matrix(-0.017, 1, -1, -0.017, 544.722, 200.185)" fill="rgba(168,168,168,0.65)"/>
      <circle id="Ellipse_7-109" data-name="Ellipse 7" cx="3" cy="3" r="3" transform="matrix(-0.017, 1, -1, -0.017, 519.722, 200.185)" fill="rgba(168,168,168,0.65)"/>
    </g>
    <g id="Group_61" data-name="Group 61" transform="translate(-391.618 654.67)">
      <circle id="Ellipse_7-110" data-name="Ellipse 7" cx="3" cy="3" r="3" transform="matrix(-0.017, 1, -1, -0.017, 494.722, 200.185)" fill="rgba(7,81,255,0.65)"/>
      <circle id="Ellipse_7-111" data-name="Ellipse 7" cx="3" cy="3" r="3" transform="matrix(-0.017, 1, -1, -0.017, 544.722, 200.185)" fill="rgba(7,81,255,0.65)"/>
      <circle id="Ellipse_7-112" data-name="Ellipse 7" cx="3" cy="3" r="3" transform="matrix(-0.017, 1, -1, -0.017, 519.722, 200.185)" fill="rgba(7,81,255,0.65)"/>
    </g>
    <g id="Group_54" data-name="Group 54" transform="translate(-464.618 654.67)">
      <circle id="Ellipse_7-113" data-name="Ellipse 7" cx="3" cy="3" r="3" transform="matrix(-0.017, 1, -1, -0.017, 494.722, 200.185)" fill="rgba(7,81,255,0.65)"/>
      <circle id="Ellipse_7-114" data-name="Ellipse 7" cx="3" cy="3" r="3" transform="matrix(-0.017, 1, -1, -0.017, 544.722, 200.185)" fill="rgba(7,81,255,0.65)"/>
      <circle id="Ellipse_7-115" data-name="Ellipse 7" cx="3" cy="3" r="3" transform="matrix(-0.017, 1, -1, -0.017, 519.722, 200.185)" fill="rgba(7,81,255,0.65)"/>
    </g>
    <g id="Group_31" data-name="Group 31" transform="translate(947.448 251.816)">
      <circle id="Ellipse_7-116" data-name="Ellipse 7" cx="3" cy="3" r="3" transform="matrix(-0.017, 1, -1, -0.017, 494.722, 200.185)" fill="rgba(168,168,168,0.65)"/>
      <circle id="Ellipse_7-117" data-name="Ellipse 7" cx="3" cy="3" r="3" transform="matrix(-0.017, 1, -1, -0.017, 544.722, 200.185)" fill="rgba(168,168,168,0.65)"/>
      <circle id="Ellipse_7-118" data-name="Ellipse 7" cx="3" cy="3" r="3" transform="matrix(-0.017, 1, -1, -0.017, 519.722, 200.185)" fill="rgba(168,168,168,0.65)"/>
    </g>
    <g id="Group_43" data-name="Group 43" transform="translate(1093.448 251.816)">
      <circle id="Ellipse_7-119" data-name="Ellipse 7" cx="3" cy="3" r="3" transform="matrix(-0.017, 1, -1, -0.017, 494.722, 200.185)" fill="rgba(168,168,168,0.65)"/>
      <circle id="Ellipse_7-120" data-name="Ellipse 7" cx="3" cy="3" r="3" transform="matrix(-0.017, 1, -1, -0.017, 544.722, 200.185)" fill="rgba(168,168,168,0.65)"/>
      <circle id="Ellipse_7-121" data-name="Ellipse 7" cx="3" cy="3" r="3" transform="matrix(-0.017, 1, -1, -0.017, 519.722, 200.185)" fill="rgba(168,168,168,0.65)"/>
    </g>
    <g id="Group_24" data-name="Group 24" transform="translate(874.448 251.816)">
      <circle id="Ellipse_7-122" data-name="Ellipse 7" cx="3" cy="3" r="3" transform="matrix(-0.017, 1, -1, -0.017, 494.722, 200.185)" fill="rgba(168,168,168,0.65)"/>
      <circle id="Ellipse_7-123" data-name="Ellipse 7" cx="3" cy="3" r="3" transform="matrix(-0.017, 1, -1, -0.017, 544.722, 200.185)" fill="rgba(168,168,168,0.65)"/>
      <circle id="Ellipse_7-124" data-name="Ellipse 7" cx="3" cy="3" r="3" transform="matrix(-0.017, 1, -1, -0.017, 519.722, 200.185)" fill="rgba(168,168,168,0.65)"/>
    </g>
    <g id="Group_36" data-name="Group 36" transform="translate(1020.448 251.816)">
      <circle id="Ellipse_7-125" data-name="Ellipse 7" cx="3" cy="3" r="3" transform="matrix(-0.017, 1, -1, -0.017, 494.722, 200.185)" fill="rgba(168,168,168,0.65)"/>
      <circle id="Ellipse_7-126" data-name="Ellipse 7" cx="3" cy="3" r="3" transform="matrix(-0.017, 1, -1, -0.017, 544.722, 200.185)" fill="rgba(168,168,168,0.65)"/>
      <circle id="Ellipse_7-127" data-name="Ellipse 7" cx="3" cy="3" r="3" transform="matrix(-0.017, 1, -1, -0.017, 519.722, 200.185)" fill="rgba(168,168,168,0.65)"/>
    </g>
    <g id="Group_62" data-name="Group 62" transform="translate(-391.618 721.67)">
      <circle id="Ellipse_7-128" data-name="Ellipse 7" cx="3" cy="3" r="3" transform="matrix(-0.017, 1, -1, -0.017, 494.722, 200.185)" fill="rgba(7,81,255,0.65)"/>
      <circle id="Ellipse_7-129" data-name="Ellipse 7" cx="3" cy="3" r="3" transform="matrix(-0.017, 1, -1, -0.017, 544.722, 200.185)" fill="rgba(7,81,255,0.65)"/>
      <circle id="Ellipse_7-130" data-name="Ellipse 7" cx="3" cy="3" r="3" transform="matrix(-0.017, 1, -1, -0.017, 519.722, 200.185)" fill="rgba(7,81,255,0.65)"/>
    </g>
    <g id="Group_57" data-name="Group 57" transform="translate(-464.618 721.67)">
      <circle id="Ellipse_7-131" data-name="Ellipse 7" cx="3" cy="3" r="3" transform="matrix(-0.017, 1, -1, -0.017, 494.722, 200.185)" fill="rgba(7,81,255,0.65)"/>
      <circle id="Ellipse_7-132" data-name="Ellipse 7" cx="3" cy="3" r="3" transform="matrix(-0.017, 1, -1, -0.017, 544.722, 200.185)" fill="rgba(7,81,255,0.65)"/>
      <circle id="Ellipse_7-133" data-name="Ellipse 7" cx="3" cy="3" r="3" transform="matrix(-0.017, 1, -1, -0.017, 519.722, 200.185)" fill="rgba(7,81,255,0.65)"/>
    </g>
    <g id="Group_9" data-name="Group 9" transform="translate(244.345 67)">
      <circle id="Ellipse_7-134" data-name="Ellipse 7" cx="3" cy="3" r="3" transform="matrix(-0.017, 1, -1, -0.017, 494.722, 200.185)" fill="rgba(236,46,46,0.65)"/>
      <circle id="Ellipse_7-135" data-name="Ellipse 7" cx="3" cy="3" r="3" transform="matrix(-0.017, 1, -1, -0.017, 544.722, 200.185)" fill="rgba(236,46,46,0.65)"/>
      <circle id="Ellipse_7-136" data-name="Ellipse 7" cx="3" cy="3" r="3" transform="matrix(-0.017, 1, -1, -0.017, 519.722, 200.185)" fill="rgba(236,46,46,0.65)"/>
    </g>
    <g id="Group_32" data-name="Group 32" transform="translate(947.448 316.816)">
      <circle id="Ellipse_7-137" data-name="Ellipse 7" cx="3" cy="3" r="3" transform="matrix(-0.017, 1, -1, -0.017, 494.722, 200.185)" fill="rgba(168,168,168,0.65)"/>
      <circle id="Ellipse_7-138" data-name="Ellipse 7" cx="3" cy="3" r="3" transform="matrix(-0.017, 1, -1, -0.017, 544.722, 200.185)" fill="rgba(168,168,168,0.65)"/>
      <circle id="Ellipse_7-139" data-name="Ellipse 7" cx="3" cy="3" r="3" transform="matrix(-0.017, 1, -1, -0.017, 519.722, 200.185)" fill="rgba(168,168,168,0.65)"/>
    </g>
    <g id="Group_44" data-name="Group 44" transform="translate(1093.448 316.816)">
      <circle id="Ellipse_7-140" data-name="Ellipse 7" cx="3" cy="3" r="3" transform="matrix(-0.017, 1, -1, -0.017, 494.722, 200.185)" fill="rgba(168,168,168,0.65)"/>
      <circle id="Ellipse_7-141" data-name="Ellipse 7" cx="3" cy="3" r="3" transform="matrix(-0.017, 1, -1, -0.017, 544.722, 200.185)" fill="rgba(168,168,168,0.65)"/>
      <circle id="Ellipse_7-142" data-name="Ellipse 7" cx="3" cy="3" r="3" transform="matrix(-0.017, 1, -1, -0.017, 519.722, 200.185)" fill="rgba(168,168,168,0.65)"/>
    </g>
    <g id="Group_20" data-name="Group 20" transform="translate(171.345 67)">
      <circle id="Ellipse_7-143" data-name="Ellipse 7" cx="3" cy="3" r="3" transform="matrix(-0.017, 1, -1, -0.017, 494.722, 200.185)" fill="rgba(236,46,46,0.65)"/>
      <circle id="Ellipse_7-144" data-name="Ellipse 7" cx="3" cy="3" r="3" transform="matrix(-0.017, 1, -1, -0.017, 544.722, 200.185)" fill="rgba(236,46,46,0.65)"/>
      <circle id="Ellipse_7-145" data-name="Ellipse 7" cx="3" cy="3" r="3" transform="matrix(-0.017, 1, -1, -0.017, 519.722, 200.185)" fill="rgba(236,46,46,0.65)"/>
    </g>
    <g id="Group_33" data-name="Group 33" transform="translate(874.448 316.816)">
      <circle id="Ellipse_7-146" data-name="Ellipse 7" cx="3" cy="3" r="3" transform="matrix(-0.017, 1, -1, -0.017, 494.722, 200.185)" fill="rgba(168,168,168,0.65)"/>
      <circle id="Ellipse_7-147" data-name="Ellipse 7" cx="3" cy="3" r="3" transform="matrix(-0.017, 1, -1, -0.017, 544.722, 200.185)" fill="rgba(168,168,168,0.65)"/>
      <circle id="Ellipse_7-148" data-name="Ellipse 7" cx="3" cy="3" r="3" transform="matrix(-0.017, 1, -1, -0.017, 519.722, 200.185)" fill="rgba(168,168,168,0.65)"/>
    </g>
    <g id="Group_45" data-name="Group 45" transform="translate(1020.448 316.816)">
      <circle id="Ellipse_7-149" data-name="Ellipse 7" cx="3" cy="3" r="3" transform="matrix(-0.017, 1, -1, -0.017, 494.722, 200.185)" fill="rgba(168,168,168,0.65)"/>
      <circle id="Ellipse_7-150" data-name="Ellipse 7" cx="3" cy="3" r="3" transform="matrix(-0.017, 1, -1, -0.017, 544.722, 200.185)" fill="rgba(168,168,168,0.65)"/>
      <circle id="Ellipse_7-151" data-name="Ellipse 7" cx="3" cy="3" r="3" transform="matrix(-0.017, 1, -1, -0.017, 519.722, 200.185)" fill="rgba(168,168,168,0.65)"/>
    </g>
    <g id="Group_63" data-name="Group 63" transform="translate(-391.618 687.67)">
      <circle id="Ellipse_7-152" data-name="Ellipse 7" cx="3" cy="3" r="3" transform="matrix(-0.017, 1, -1, -0.017, 494.722, 200.185)" fill="rgba(7,81,255,0.65)"/>
      <circle id="Ellipse_7-153" data-name="Ellipse 7" cx="3" cy="3" r="3" transform="matrix(-0.017, 1, -1, -0.017, 544.722, 200.185)" fill="rgba(7,81,255,0.65)"/>
      <circle id="Ellipse_7-154" data-name="Ellipse 7" cx="3" cy="3" r="3" transform="matrix(-0.017, 1, -1, -0.017, 519.722, 200.185)" fill="rgba(7,81,255,0.65)"/>
    </g>
    <g id="Group_55" data-name="Group 55" transform="translate(-464.618 687.67)">
      <circle id="Ellipse_7-155" data-name="Ellipse 7" cx="3" cy="3" r="3" transform="matrix(-0.017, 1, -1, -0.017, 494.722, 200.185)" fill="rgba(7,81,255,0.65)"/>
      <circle id="Ellipse_7-156" data-name="Ellipse 7" cx="3" cy="3" r="3" transform="matrix(-0.017, 1, -1, -0.017, 544.722, 200.185)" fill="rgba(7,81,255,0.65)"/>
      <circle id="Ellipse_7-157" data-name="Ellipse 7" cx="3" cy="3" r="3" transform="matrix(-0.017, 1, -1, -0.017, 519.722, 200.185)" fill="rgba(7,81,255,0.65)"/>
    </g>
    <g id="Group_76" data-name="Group 76" transform="translate(1484.312 150.299)">
      <path id="Path_8" data-name="Path 8" d="M3.553,2.533l17.319,15.8" transform="translate(363.5 512.5)" fill="none" stroke="#4949e0" stroke-width="1"/>
      <path id="Path_7" data-name="Path 7" d="M3.82,3.589,20.485,17.967" transform="translate(386 511) rotate(90)" fill="none" stroke="#4949e0" stroke-width="1"/>
      <path id="Path_6" data-name="Path 6" d="M5.271,4.719,18.255,16.006" transform="translate(391.445 523.052) rotate(139)" fill="none" stroke="#4949e0" stroke-width="1"/>
      <path id="Path_5" data-name="Path 5" d="M5.536,4.842,19.481,16.776" transform="translate(374.404 506.387) rotate(45)" fill="none" stroke="#4949e0" stroke-width="1"/>
    </g>
    <g id="Group_77" data-name="Group 77" transform="translate(1426.312 -472.928)">
      <path id="Path_8-2" data-name="Path 8" d="M3.553,2.533l17.319,15.8" transform="translate(363.5 512.5)" fill="none" stroke="#4949e0" stroke-width="1"/>
      <path id="Path_7-2" data-name="Path 7" d="M3.82,3.589,20.485,17.967" transform="translate(386 511) rotate(90)" fill="none" stroke="#4949e0" stroke-width="1"/>
      <path id="Path_6-2" data-name="Path 6" d="M5.271,4.719,18.255,16.006" transform="translate(391.445 523.052) rotate(139)" fill="none" stroke="#4949e0" stroke-width="1"/>
      <path id="Path_5-2" data-name="Path 5" d="M5.536,4.842,19.481,16.776" transform="translate(374.404 506.387) rotate(45)" fill="none" stroke="#4949e0" stroke-width="1"/>
    </g>
    <g id="Group_74" data-name="Group 74" transform="translate(18.299 197)">
      <path id="Path_8-3" data-name="Path 8" d="M3.553,2.533l17.319,15.8" transform="translate(363.5 512.5)" fill="none" stroke="#4949e0" stroke-width="1"/>
      <path id="Path_7-3" data-name="Path 7" d="M3.82,3.589,20.485,17.967" transform="translate(386 511) rotate(90)" fill="none" stroke="#4949e0" stroke-width="1"/>
      <path id="Path_6-3" data-name="Path 6" d="M5.271,4.719,18.255,16.006" transform="translate(391.445 523.052) rotate(139)" fill="none" stroke="#4949e0" stroke-width="1"/>
      <path id="Path_5-3" data-name="Path 5" d="M5.536,4.842,19.481,16.776" transform="translate(374.404 506.387) rotate(45)" fill="none" stroke="#4949e0" stroke-width="1"/>
    </g>
    <g id="Group_75" data-name="Group 75" transform="translate(303.26 132)">
      <path id="Path_8-4" data-name="Path 8" d="M3.553,2.533l17.319,15.8" transform="translate(363.5 512.5)" fill="none" stroke="#4949e0" stroke-width="1"/>
      <path id="Path_7-4" data-name="Path 7" d="M3.82,3.589,20.485,17.967" transform="translate(386 511) rotate(90)" fill="none" stroke="#4949e0" stroke-width="1"/>
      <path id="Path_6-4" data-name="Path 6" d="M5.271,4.719,18.255,16.006" transform="translate(391.445 523.052) rotate(139)" fill="none" stroke="#4949e0" stroke-width="1"/>
      <path id="Path_5-4" data-name="Path 5" d="M5.536,4.842,19.481,16.776" transform="translate(374.404 506.387) rotate(45)" fill="none" stroke="#4949e0" stroke-width="1"/>
    </g>
  </g>
</svg>
