<svg xmlns="http://www.w3.org/2000/svg" width="102.497" height="102.497" viewBox="0 0 102.497 102.497">
  <g id="Group_666" data-name="Group 666" transform="translate(-731 -3014.503)">
    <path id="Path_280" data-name="Path 280" d="M85.757,59.179a4.953,4.953,0,0,0-3.39-4.7L75.838,52.3V50.142a8.233,8.233,0,0,0,3.306-6.57V40.266a8.266,8.266,0,0,0-16.532,0v3.306a8.228,8.228,0,0,0,3.306,6.57V52.3L59.39,54.475a4.954,4.954,0,0,0-3.39,4.7v9.19H85.757ZM65.919,40.266a4.96,4.96,0,0,1,9.919,0v3.306a4.96,4.96,0,1,1-9.919,0Zm16.532,24.8H59.306V59.179a1.65,1.65,0,0,1,1.131-1.568l8.788-2.928V51.671a8.262,8.262,0,0,0,3.306,0v3.013l8.788,2.928a1.652,1.652,0,0,1,1.131,1.568Zm0,0" transform="translate(686.572 2989.116)" fill="#3c3c3c"/>
    <g id="Group_665" data-name="Group 665">
      <path id="Path_279" data-name="Path 279" d="M93.528,145.516l-12.522-2.89v-3.256a13.312,13.312,0,0,0,3.171-3.695h1.789a8.276,8.276,0,0,0,8.266-8.266,8.186,8.186,0,0,0-1.653-4.909v-6.664a19.838,19.838,0,0,0-39.676,0V122.5a8.189,8.189,0,0,0-1.653,4.909,8.276,8.276,0,0,0,8.266,8.266H61.3a13.285,13.285,0,0,0,3.171,3.695v3.256l-12.522,2.89a11.515,11.515,0,0,0-2.357.841v-9.028a4.966,4.966,0,0,0-4.96-4.96H4.96A4.966,4.966,0,0,0,0,137.329v29.757a4.966,4.966,0,0,0,4.96,4.96H18.185v3.306H14.879v3.306H102.5V156.792a11.518,11.518,0,0,0-8.97-11.276Zm-27.776.21,4.03,3.022-4.075,2.445-.877-5.256Zm5.2,13.095h3.573L75.9,175.353H69.578Zm3.9-3.306h-4.23l-.949-2.847,3.065-1.838,3.063,1.838Zm.845-6.766,4.03-3.022L80.9,146l-1.049,5.24ZM85.966,132.37h-.435a13.149,13.149,0,0,0,.435-3.306v-6.613a4.96,4.96,0,1,1,0,9.919ZM72.74,99.306a16.55,16.55,0,0,1,16.532,16.532v4.007a8.182,8.182,0,0,0-3.306-.7v-3.306H82.659v.923a9.692,9.692,0,0,1-3.991,2.079c.065-.063.136-.117.2-.18l-2.338-2.338a9.673,9.673,0,0,1-4.475,2.518c.065-.063.136-.117.2-.18l-2.338-2.338a9.7,9.7,0,0,1-6.813,2.822h-.284v-3.306H59.515v3.306a8.182,8.182,0,0,0-3.306.7v-4.007A16.55,16.55,0,0,1,72.74,99.306ZM59.515,132.37a4.96,4.96,0,1,1,0-9.919v6.613a13.148,13.148,0,0,0,.435,3.306Zm3.306-3.306v-6.613h.284a12.92,12.92,0,0,0,4.675-.894v.894h1.937a12.92,12.92,0,0,0,4.675-.894v.894h1.937a13.011,13.011,0,0,0,6.329-1.672v8.284a9.871,9.871,0,0,1-.579,3.306H72.74v3.306h7.373a9.905,9.905,0,0,1-17.292-6.613Zm9.919,13.225a13.135,13.135,0,0,0,4.96-.974v1.8l-4.96,3.72-4.96-3.72v-1.8A13.135,13.135,0,0,0,72.74,142.289ZM52.7,148.738l8.908-2.054,1.639,9.844,3.53-2.117.986,2.959-1.5,17.983h-8.4V157.168H54.555v18.185H46.289v-3.611a4.953,4.953,0,0,0,3.306-4.655V150.2a8.265,8.265,0,0,1,3.1-1.46ZM31.411,172.046H42.983v3.306H31.411ZM4.96,168.74a1.654,1.654,0,0,1-1.653-1.653V137.329a1.654,1.654,0,0,1,1.653-1.653H44.636a1.654,1.654,0,0,1,1.653,1.653v29.757a1.654,1.654,0,0,1-1.653,1.653H31.411v-3.306a6.613,6.613,0,1,0-13.225,0v3.306Zm16.532-3.306a3.306,3.306,0,0,1,6.613,0v9.919H21.492Zm77.7,9.919H90.925V157.168H87.619v18.185h-8.4l-1.5-17.983.985-2.959,3.459,2.076,1.949-9.747,8.67,2a8.228,8.228,0,0,1,6.406,8.053Zm0,0" transform="translate(731 2938.341)" fill="#3c3c3c"/>
      <path id="Path_281" data-name="Path 281" d="M26.451,52.9A26.451,26.451,0,1,0,0,26.451,26.482,26.482,0,0,0,26.451,52.9Zm0-49.6A23.145,23.145,0,1,1,3.306,26.451,23.17,23.17,0,0,1,26.451,3.306Zm0,0" transform="translate(731 3014.503)" fill="#3c3c3c"/>
      <path id="Path_282" data-name="Path 282" d="M296,48h3.306v3.306H296Zm0,0" transform="translate(496.168 2976.422)" fill="#3c3c3c"/>
      <path id="Path_283" data-name="Path 283" d="M344,48h3.306v3.306H344Zm0,0" transform="translate(458.087 2976.422)" fill="#3c3c3c"/>
      <path id="Path_284" data-name="Path 284" d="M392,48h3.306v3.306H392Zm0,0" transform="translate(420.006 2976.422)" fill="#3c3c3c"/>
    </g>
  </g>
</svg>
