<svg xmlns="http://www.w3.org/2000/svg" width="99" height="99" viewBox="0 0 99 99">
  <g id="Group_668" data-name="Group 668" transform="translate(-1076 -3021)">
    <path id="Path_286" data-name="Path 286" d="M288,207.968h35.129V192H288Zm3.194-12.774h28.742v9.581H291.194Zm0,0" transform="translate(845.484 2867.323)" fill="#3c3c3c"/>
    <g id="Group_667" data-name="Group 667">
      <path id="Path_285" data-name="Path 285" d="M94.21,31.935h-1.6V12.774H15.968V0H7.984A7.993,7.993,0,0,0,0,7.984V68.661a7.993,7.993,0,0,0,7.984,7.984H51.1V94.21A4.8,4.8,0,0,0,55.887,99H94.21A4.8,4.8,0,0,0,99,94.21V36.726A4.8,4.8,0,0,0,94.21,31.935ZM3.194,7.984a4.8,4.8,0,0,1,4.79-4.79h4.79V60.677H7.984a7.952,7.952,0,0,0-4.79,1.6Zm4.79,65.468a4.79,4.79,0,1,1,0-9.581h7.984v-47.9H89.419V31.935H56.382A19.178,19.178,0,1,0,51.1,52.584V73.452ZM51.1,36.726H39.919V22.444A16.024,16.024,0,0,1,53.278,32.718,4.78,4.78,0,0,0,51.1,36.726ZM36.726,54.209a15.967,15.967,0,0,1,0-31.773Zm3.194-14.29H51.1v7.949a15.979,15.979,0,0,1-11.177,6.325ZM95.806,94.21a1.6,1.6,0,0,1-1.6,1.6H55.887a1.6,1.6,0,0,1-1.6-1.6V36.726a1.6,1.6,0,0,1,1.6-1.6H94.21a1.6,1.6,0,0,1,1.6,1.6Zm0,0" transform="translate(1076 3021)" fill="#3c3c3c"/>
      <path id="Path_287" data-name="Path 287" d="M416,425.581h9.581V416H416Zm3.194-6.387h3.194v3.194h-3.194Zm0,0" transform="translate(743.032 2688.032)" fill="#3c3c3c"/>
      <path id="Path_288" data-name="Path 288" d="M352,425.581h9.581V416H352Zm3.194-6.387h3.194v3.194h-3.194Zm0,0" transform="translate(794.258 2688.032)" fill="#3c3c3c"/>
      <path id="Path_289" data-name="Path 289" d="M288,425.581h9.581V416H288Zm3.194-6.387h3.194v3.194h-3.194Zm0,0" transform="translate(845.484 2688.032)" fill="#3c3c3c"/>
      <path id="Path_290" data-name="Path 290" d="M416,361.581h9.581V352H416Zm3.194-6.387h3.194v3.194h-3.194Zm0,0" transform="translate(743.032 2739.258)" fill="#3c3c3c"/>
      <path id="Path_291" data-name="Path 291" d="M352,361.581h9.581V352H352Zm3.194-6.387h3.194v3.194h-3.194Zm0,0" transform="translate(794.258 2739.258)" fill="#3c3c3c"/>
      <path id="Path_292" data-name="Path 292" d="M288,361.581h9.581V352H288Zm3.194-6.387h3.194v3.194h-3.194Zm0,0" transform="translate(845.484 2739.258)" fill="#3c3c3c"/>
      <path id="Path_293" data-name="Path 293" d="M416,297.581h9.581V288H416Zm3.194-6.387h3.194v3.194h-3.194Zm0,0" transform="translate(743.032 2790.484)" fill="#3c3c3c"/>
      <path id="Path_294" data-name="Path 294" d="M352,297.581h9.581V288H352Zm3.194-6.387h3.194v3.194h-3.194Zm0,0" transform="translate(794.258 2790.484)" fill="#3c3c3c"/>
      <path id="Path_295" data-name="Path 295" d="M288,297.581h9.581V288H288Zm3.194-6.387h3.194v3.194h-3.194Zm0,0" transform="translate(845.484 2790.484)" fill="#3c3c3c"/>
    </g>
    <path id="Path_296" data-name="Path 296" d="M320,96h22.355v3.194H320Zm0,0" transform="translate(819.871 2944.161)" fill="#3c3c3c"/>
    <path id="Path_297" data-name="Path 297" d="M304,128h25.548v3.194H304Zm0,0" transform="translate(832.677 2918.548)" fill="#3c3c3c"/>
  </g>
</svg>
