<svg xmlns="http://www.w3.org/2000/svg" width="2131" height="1084" viewBox="0 0 2131 1084">
  <g id="testimonial" transform="translate(452 211)">
    <g id="svg1" transform="translate(344 355)">
      <g id="Ellipse_7" data-name="Ellipse 7" transform="translate(-796 -483)" fill="none" stroke="#ffce49" stroke-width="5">
        <ellipse cx="68" cy="67.5" rx="68" ry="67.5" stroke="none"/>
        <ellipse cx="68" cy="67.5" rx="65.5" ry="65" fill="none"/>
      </g>
      <g id="Ellipse_8" data-name="Ellipse 8" transform="translate(-767 -451)" fill="none">
        <path d="M39,0C60.539,0,78,16.565,78,37S60.539,74,39,74,0,57.435,0,37,17.461,0,39,0Z" stroke="none"/>
        <path d="M 39 5 C 34.37586975097656 5 29.89487075805664 5.857269287109375 25.68148422241211 7.547988891601562 C 21.62555694580078 9.175529479980469 17.9860725402832 11.50252914428711 14.86414337158203 14.46437072753906 C 11.7607421875 17.40861511230469 9.327339172363281 20.83014297485352 7.63153076171875 24.6338996887207 C 5.885368347167969 28.55055618286133 5 32.71111297607422 5 37 C 5 41.28888702392578 5.885368347167969 45.44944000244141 7.63153076171875 49.3661003112793 C 9.327339172363281 53.16985702514648 11.7607421875 56.59138488769531 14.86414337158203 59.53562927246094 C 17.9860725402832 62.49747085571289 21.62555694580078 64.82447052001953 25.68148422241211 66.45201110839844 C 29.89487075805664 68.14273071289062 34.37586975097656 69 39 69 C 43.62413024902344 69 48.10512924194336 68.14273071289062 52.31851196289062 66.45201110839844 C 56.37444305419922 64.82447052001953 60.01393127441406 62.49747085571289 63.13585662841797 59.53562927246094 C 66.2392578125 56.59138488769531 68.67265319824219 53.16985702514648 70.36846923828125 49.3661003112793 C 72.11463165283203 45.44944000244141 73 41.28888702392578 73 37 C 73 32.71111297607422 72.11463165283203 28.55055618286133 70.36846923828125 24.6338996887207 C 68.67265319824219 20.83014297485352 66.2392578125 17.40861511230469 63.13585662841797 14.46437072753906 C 60.01393127441406 11.50252914428711 56.37444305419922 9.175529479980469 52.31851196289062 7.547988891601562 C 48.10512924194336 5.857269287109375 43.62413024902344 5 39 5 M 39 0 C 60.53910064697266 0 78 16.56547164916992 78 37 C 78 57.43452835083008 60.53910064697266 74 39 74 C 17.46089935302734 74 0 57.43452835083008 0 37 C 0 16.56547164916992 17.46089935302734 0 39 0 Z" stroke="none" fill="#ffce49"/>
      </g>
    </g>
    <g id="svg3" transform="translate(460 272)">
      <ellipse id="Ellipse_7-2" data-name="Ellipse 7" cx="349.5" cy="347.5" rx="349.5" ry="347.5" transform="translate(-796 -483)" fill="rgba(255,134,73,0.31)"/>
    </g>
    <g id="svg3-2" data-name="svg3" transform="translate(917 1292.419)">
      <ellipse id="Ellipse_7-3" data-name="Ellipse 7" cx="33" cy="32" rx="33" ry="32" transform="translate(-796 -483.419)" fill="#ff8649"/>
    </g>
    <g id="svg4" transform="translate(1280 1007)">
      <ellipse id="Ellipse_7-4" data-name="Ellipse 7" cx="58" cy="58.5" rx="58" ry="58.5" transform="translate(-796 -483)" fill="#ff4949"/>
    </g>
    <g id="svg5" transform="translate(1936 -55)">
      <g id="Rectangle_1" data-name="Rectangle 1" transform="translate(-697 -156)" fill="#fff" stroke="#ff5f25" stroke-width="23">
        <rect width="180" height="180" stroke="none"/>
        <rect x="11.5" y="11.5" width="157" height="157" fill="none"/>
      </g>
    </g>
    <g id="svg6" transform="translate(2362 1048)">
      <g id="Rectangle_2" data-name="Rectangle 2" transform="translate(-783 -285)" fill="#fff" stroke="#ffcd25" stroke-width="13">
        <rect width="100" height="100" stroke="none"/>
        <rect x="6.5" y="6.5" width="87" height="87" fill="none"/>
      </g>
    </g>
  </g>
</svg>
